<?xml version="1.0" standalone="no"?>
<!DOCTYPE svg PUBLIC "-//W3C//DTD SVG 20010904//EN"
 "http://www.w3.org/TR/2001/REC-SVG-20010904/DTD/svg10.dtd">
<svg version="1.0" xmlns="http://www.w3.org/2000/svg"
 width="1080.000000pt" height="1080.000000pt" viewBox="0 0 1080.000000 1080.000000"
 preserveAspectRatio="xMidYMid meet">
<metadata>
Created by potrace 1.14, written by Peter Selinger 2001-2017
</metadata>
<g transform="translate(0.000000,1080.000000) scale(0.100000,-0.100000)"
fill="#000000" stroke="none">
<path d="M5095 9320 c-545 -48 -1002 -177 -1474 -415 -1081 -546 -1863 -1582
-2085 -2765 -47 -249 -57 -354 -63 -656 -7 -391 13 -615 87 -951 213 -975 817
-1849 1670 -2420 1132 -757 2623 -862 3858 -272 430 205 794 468 1137 820 553
569 917 1280 1049 2051 45 260 51 338 51 683 0 209 -5 368 -13 435 -96 778
-368 1431 -848 2035 -120 150 -452 480 -605 602 -598 474 -1251 746 -2014 839
-152 18 -603 27 -750 14z m289 -567 c89 -122 165 -225 170 -230 12 -11 -4 379
-16 394 -5 6 -24 13 -41 15 -24 2 -32 8 -32 23 0 19 8 20 123 23 l123 3 -3
-23 c-2 -17 -11 -24 -33 -26 -59 -7 -58 0 -54 -317 l4 -290 -31 -3 c-29 -3
-37 6 -215 252 l-184 255 -3 -87 c-1 -48 1 -150 5 -227 l8 -139 43 -9 c32 -6
42 -13 42 -28 0 -16 -8 -19 -57 -20 -143 -4 -206 -11 -323 -39 -150 -35 -146
-35 -153 -11 -3 14 4 23 29 35 19 8 34 23 34 32 0 25 -69 144 -83 144 -22 -1
-168 -38 -175 -44 -3 -4 -6 -44 -7 -89 l0 -82 44 -1 c30 0 46 -6 53 -18 5 -10
8 -19 6 -20 -1 -2 -57 -15 -122 -30 -94 -20 -122 -23 -128 -14 -12 21 -10 28
16 40 14 6 29 22 35 37 6 14 30 158 54 320 l42 294 28 10 c19 6 32 5 42 -3 8
-7 83 -123 166 -259 83 -135 158 -252 167 -258 9 -7 28 -13 44 -13 16 0 28 -6
28 -12 0 -9 3 -8 10 2 5 8 26 19 47 25 l38 11 3 224 c3 237 -2 309 -21 314
-52 14 -72 24 -72 36 0 20 39 29 119 27 l69 -2 161 -222z m575 176 c69 -12
128 -23 129 -24 2 -2 1 -13 -3 -24 -5 -17 -15 -21 -45 -21 -28 0 -40 -5 -44
-17 -7 -22 -86 -483 -86 -501 0 -7 15 -19 34 -27 40 -17 48 -26 37 -43 -6 -10
-35 -8 -137 9 -71 12 -131 23 -132 24 -2 2 -1 13 3 24 5 17 15 21 45 21 28 0
40 5 44 18 13 43 85 496 79 505 -3 5 -20 15 -38 23 -26 10 -32 18 -28 34 3 11
8 20 10 20 3 0 62 -10 132 -21z m-1724 -171 c-31 -36 -31 -40 -5 -363 26 -323
27 -300 -11 -316 l-32 -13 -222 229 -221 228 -36 -7 c-28 -5 -37 -3 -42 10 -4
10 -3 21 1 25 21 19 236 110 248 105 24 -9 17 -30 -15 -49 -16 -10 -30 -25
-30 -34 0 -29 303 -355 308 -331 4 20 -35 410 -44 432 -6 15 -14 17 -54 12
-39 -5 -49 -3 -54 10 -4 9 -5 18 -3 20 1 2 50 25 107 52 92 44 107 48 117 34
10 -12 8 -20 -12 -44z m2337 -1 c4 -7 8 -55 8 -107 0 -52 3 -187 7 -300 l6
-205 29 -27 c29 -27 35 -43 18 -53 -9 -5 -270 72 -270 80 0 24 17 35 55 35
l43 0 7 81 c4 44 3 84 -1 89 -5 4 -42 18 -83 30 -40 12 -79 24 -87 27 -8 3
-31 -23 -60 -66 -51 -77 -51 -88 6 -111 32 -13 40 -37 16 -46 -8 -3 -63 10
-123 29 -85 28 -108 39 -108 54 0 13 9 19 36 21 44 4 44 3 243 257 212 270
190 247 223 234 15 -6 31 -16 35 -22z m-3108 -374 c4 -10 -3 -26 -19 -43 -14
-14 -25 -31 -25 -38 0 -17 278 -432 290 -432 17 0 92 41 125 67 43 35 54 66
43 122 -7 39 -6 48 9 59 16 12 21 6 51 -55 18 -37 31 -77 30 -88 -2 -14 -65
-61 -193 -148 -172 -115 -191 -126 -203 -110 -10 14 -8 21 13 43 14 14 25 32
25 39 0 22 -281 441 -296 441 -7 0 -25 -5 -39 -12 -21 -9 -29 -9 -42 5 -15 14
-7 22 98 91 63 41 117 75 120 75 4 1 10 -6 13 -16z m3887 -3 c106 -32 239
-133 239 -180 0 -13 -16 -52 -36 -87 -31 -56 -37 -62 -55 -53 -23 13 -23 10
-3 70 14 44 14 51 0 78 -31 60 -123 112 -198 112 -94 -1 -191 -78 -250 -198
-27 -55 -33 -78 -33 -133 0 -55 4 -72 28 -107 35 -54 95 -93 151 -99 35 -4 54
0 95 23 47 25 53 26 67 12 14 -14 10 -20 -38 -66 -63 -61 -80 -63 -174 -26
-80 32 -165 107 -202 178 -22 42 -27 65 -27 126 0 65 4 84 32 140 56 113 123
176 226 211 67 24 101 23 178 -1z m-4231 -245 c10 -12 10 -19 2 -27 -19 -19
-14 -60 29 -231 l40 -161 56 -64 c83 -94 92 -99 142 -70 36 20 43 21 51 8 14
-22 -178 -214 -197 -198 -17 14 -16 33 2 48 30 25 16 54 -57 126 l-73 71 -165
47 c-180 50 -191 52 -220 34 -16 -10 -22 -10 -35 2 -13 14 -5 26 80 110 85 85
96 93 110 79 14 -14 14 -18 -5 -41 -26 -34 -25 -42 5 -56 31 -14 236 -74 240
-70 6 6 -73 250 -83 260 -7 7 -19 4 -38 -11 -25 -20 -29 -20 -43 -6 -14 14 -8
23 59 90 41 41 77 75 81 75 4 0 12 -7 19 -15z m2630 -169 c401 -55 786 -199
1110 -416 216 -145 443 -351 594 -540 285 -356 466 -765 548 -1236 31 -176 33
-617 5 -789 -133 -797 -564 -1447 -1233 -1857 -812 -499 -1854 -509 -2680 -27
-341 200 -644 486 -866 819 -375 562 -516 1256 -393 1926 213 1152 1172 2022
2350 2133 128 12 430 5 565 -13z m2135 -27 c156 -58 239 -249 171 -394 -48
-103 -158 -198 -265 -229 -110 -32 -192 -12 -280 69 -149 139 -140 320 23 473
107 99 227 127 351 81z m-5250 -401 c64 -32 72 -41 57 -65 -6 -10 -19 -9 -56
2 -66 20 -93 11 -127 -43 -40 -64 -39 -111 3 -147 41 -34 63 -31 202 30 122
52 151 60 201 51 42 -8 107 -63 125 -106 17 -42 8 -126 -20 -183 -25 -50 -119
-147 -142 -147 -7 0 -43 17 -79 38 -59 33 -65 39 -57 58 10 21 12 21 60 7 27
-8 60 -12 73 -9 68 17 129 118 105 175 -15 36 -50 61 -87 61 -15 0 -77 -24
-138 -52 -135 -65 -195 -71 -262 -26 -82 54 -101 146 -54 253 22 49 96 135
117 135 8 0 43 -14 79 -32z m5737 -154 c37 -60 68 -113 68 -117 0 -21 -34 -17
-59 7 -15 14 -33 26 -40 26 -16 0 -414 -245 -431 -265 -15 -18 26 -104 73
-153 31 -33 34 -34 94 -29 50 4 63 2 68 -11 8 -21 -13 -36 -82 -62 -66 -24
-66 -24 -87 -1 -32 36 -236 373 -230 382 10 16 43 9 54 -11 6 -11 20 -20 32
-20 12 0 117 59 235 131 223 138 225 140 204 194 -9 22 5 48 22 42 6 -2 41
-52 79 -113z m-6099 -317 l-5 -44 268 -114 c147 -63 269 -119 271 -125 2 -6
-4 -21 -14 -33 -15 -18 -69 -32 -317 -86 -164 -35 -300 -65 -302 -67 -4 -5
398 -168 414 -168 7 0 22 15 33 34 15 25 25 33 39 29 11 -3 20 -7 20 -10 0 -2
-20 -52 -44 -111 -29 -70 -53 -153 -70 -241 -14 -74 -28 -137 -31 -139 -2 -2
-11 -2 -20 1 -9 4 -15 19 -15 41 0 19 -6 38 -12 43 -19 11 -151 3 -164 -10 -9
-10 -44 -149 -44 -177 0 -10 128 -80 148 -80 7 0 21 18 29 40 11 27 22 40 35
40 23 0 23 -12 -3 -133 -18 -84 -19 -103 -8 -123 11 -21 10 -31 -9 -69 -33
-67 -94 -128 -193 -192 -83 -53 -89 -59 -89 -90 l0 -34 112 3 113 3 9 43 c6
29 14 42 26 42 14 0 18 -13 24 -77 3 -42 6 -105 6 -140 0 -61 -1 -63 -25 -63
-19 0 -25 5 -25 21 0 11 -5 29 -10 40 -10 18 -23 19 -218 18 -114 -1 -234 -4
-267 -8 -59 -6 -60 -6 -65 -41 -4 -27 -10 -36 -27 -38 l-23 -3 0 163 c0 185
12 247 57 290 77 74 184 63 258 -25 l38 -45 82 51 c46 27 107 71 135 96 45 40
51 50 43 66 -6 11 -15 34 -19 50 -8 25 -50 56 -269 196 -245 156 -260 167
-258 194 1 16 7 33 12 38 5 5 142 26 303 47 162 20 304 42 316 49 24 13 32 35
35 100 l2 44 -230 98 c-126 54 -238 98 -247 99 -9 0 -25 -13 -35 -30 -18 -31
-29 -36 -51 -22 -10 7 -6 25 19 83 17 41 36 79 42 86 7 6 132 37 280 69 147
32 267 60 267 64 0 9 -335 140 -358 140 -14 0 -27 -11 -37 -30 -17 -32 -22
-35 -44 -21 -12 8 -6 29 34 120 41 96 50 109 65 101 14 -8 17 -18 13 -53z
m6396 -234 c38 -95 46 -123 35 -127 -21 -8 -40 2 -52 30 -7 14 -20 24 -32 24
-19 0 -393 -146 -452 -176 -26 -13 -29 -19 -23 -47 3 -18 20 -60 37 -95 33
-69 52 -82 122 -82 35 0 45 -4 49 -19 4 -16 -5 -22 -57 -36 -116 -31 -108 -39
-203 194 -46 112 -83 209 -83 216 0 27 30 24 50 -5 12 -17 30 -30 41 -30 26 0
445 168 469 189 17 13 19 21 11 48 -8 27 -6 35 7 42 9 5 20 6 24 2 4 -3 30
-61 57 -128z m181 -468 c0 -2 18 -89 40 -192 53 -249 54 -238 -17 -258 -32 -9
-65 -18 -74 -21 -20 -6 -33 24 -19 41 6 7 24 18 40 25 16 7 32 20 35 31 5 15
-4 93 -20 165 l-5 22 -112 -24 c-61 -14 -113 -26 -114 -27 -6 -6 37 -121 48
-128 7 -5 25 -9 39 -9 35 0 48 -38 16 -45 -169 -38 -199 -42 -205 -27 -3 9 2
20 12 26 55 33 57 37 45 106 -5 35 -11 65 -12 66 -4 4 -215 -44 -227 -51 -22
-13 2 -157 33 -199 7 -10 38 -24 68 -30 42 -10 55 -17 57 -33 3 -19 -3 -22
-61 -28 -76 -8 -105 -1 -118 28 -11 26 -89 391 -89 418 0 31 36 23 50 -11 10
-24 18 -30 44 -30 24 0 318 59 474 95 18 4 22 12 22 44 0 21 3 41 7 44 7 8 43
10 43 2z m-65 -685 c43 -16 75 -37 112 -76 71 -72 98 -156 91 -288 -7 -136
-15 -145 -133 -149 -54 -2 -60 0 -63 19 -3 18 5 23 42 33 57 14 83 42 92 98
21 143 -54 241 -210 273 -129 26 -284 -31 -332 -122 -16 -31 -19 -144 -4 -182
9 -25 13 -26 94 -26 90 0 96 4 96 56 0 19 5 24 25 24 21 0 25 -5 25 -28 0 -16
3 -70 6 -120 l7 -92 -25 0 c-19 0 -27 7 -32 25 -6 25 -8 25 -111 25 -97 0
-106 2 -119 23 -42 65 -54 244 -23 333 59 168 265 246 462 174z m-451 -626
c11 -4 16 -19 16 -44 0 -28 5 -40 18 -44 35 -11 466 -96 488 -96 17 0 26 9 35
35 13 35 24 41 46 27 16 -10 -67 -420 -87 -432 -8 -5 -24 -7 -35 -5 -11 2 -41
7 -67 10 -38 5 -48 10 -48 25 0 20 19 30 60 30 40 0 55 19 74 97 9 37 19 75
22 84 4 13 -15 20 -107 38 -61 12 -114 20 -117 17 -3 -4 -9 -30 -13 -59 -8
-58 5 -91 41 -102 22 -7 24 -13 12 -33 -7 -10 -30 -8 -113 9 -57 12 -105 22
-107 24 -1 1 0 10 4 19 4 9 17 16 34 16 16 0 35 6 42 14 13 13 44 124 36 130
-1 2 -52 13 -112 24 -73 15 -113 19 -121 12 -15 -12 -31 -69 -40 -138 l-7 -54
51 -47 c36 -34 50 -53 45 -64 -8 -21 -5 -21 -83 11 -35 15 -69 35 -75 44 -8
13 0 72 33 238 24 121 47 220 51 220 5 0 15 -3 24 -6z m-6311 -143 c3 -15 -5
-23 -35 -37 -56 -25 -69 -49 -62 -111 4 -28 10 -56 14 -63 6 -9 69 2 255 43
136 31 254 62 262 69 11 8 14 23 10 50 -4 31 -2 38 15 44 11 3 21 4 23 2 1 -1
16 -64 33 -138 22 -99 27 -137 19 -142 -23 -14 -35 -8 -42 21 -3 16 -12 34
-19 40 -8 7 -87 -6 -267 -46 -139 -30 -257 -58 -261 -62 -8 -7 24 -107 39
-122 6 -6 35 -13 66 -16 55 -6 83 -27 56 -44 -21 -13 -161 -31 -170 -22 -9 9
-42 144 -92 379 -14 62 -21 117 -17 124 7 12 118 48 151 49 9 1 19 -8 22 -18z
m428 -766 c51 -20 95 -38 97 -40 3 -2 -12 -49 -33 -104 l-38 -99 -76 28 c-42
15 -88 33 -103 39 l-27 10 31 78 c16 43 34 88 39 101 5 12 10 22 13 22 2 0 46
-16 97 -35z m6073 -61 c20 -53 34 -99 31 -104 -4 -6 -152 -65 -183 -72 -9 -2
-27 33 -52 96 -22 55 -38 101 -37 101 9 6 184 73 193 74 6 1 28 -42 48 -95z
m-5606 -522 c92 -125 94 -200 8 -280 -73 -67 -159 -79 -226 -32 -17 12 -58 58
-91 102 -56 73 -60 81 -45 96 14 15 17 15 30 -3 13 -18 19 -15 125 64 61 46
111 86 111 90 0 4 -6 13 -12 20 -11 10 -9 15 6 27 11 8 23 11 27 7 3 -5 34
-45 67 -91z m5067 48 c4 -6 2 -16 -4 -23 -7 -9 -3 -35 13 -87 l23 -75 84 -12
c64 -10 89 -10 107 -1 34 17 49 -2 27 -35 -21 -33 -34 -35 -128 -21 -44 7 -85
10 -92 8 -30 -12 -23 -34 21 -70 41 -34 46 -35 62 -21 12 11 22 13 35 6 16 -9
15 -14 -13 -52 -64 -88 -58 -83 -77 -65 -14 14 -14 20 -3 33 7 8 11 17 9 18
-2 2 -53 41 -112 86 -98 75 -110 82 -125 68 -18 -15 -42 -13 -42 5 0 18 71
108 85 108 20 0 28 -17 17 -37 -8 -13 -1 -23 32 -49 29 -23 45 -29 54 -22 16
14 15 29 -4 94 -11 40 -19 52 -27 45 -8 -6 -18 -5 -30 3 -16 12 -14 17 18 60
35 45 57 56 70 36z m-4849 -315 c36 -43 44 -59 35 -68 -9 -9 -16 -9 -32 1 -24
16 -19 19 -141 -93 -79 -71 -86 -81 -73 -95 13 -15 13 -19 -2 -32 -17 -14 -22
-11 -67 39 -45 50 -48 55 -33 71 16 15 18 15 31 -3 13 -18 17 -16 81 40 36 33
85 77 108 97 40 35 41 38 25 54 -16 16 -16 18 0 30 9 8 18 14 19 14 1 0 23
-25 49 -55z m4666 -34 c27 -24 32 -36 34 -77 l2 -48 48 -13 c27 -7 65 -12 84
-10 44 3 53 -24 16 -49 -24 -15 -31 -15 -91 0 -83 21 -98 20 -120 -4 -18 -20
-18 -22 18 -57 35 -35 37 -36 55 -20 17 16 20 16 32 2 12 -14 6 -23 -38 -67
-44 -44 -53 -50 -67 -38 -14 11 -14 15 0 30 14 15 6 25 -85 115 -95 93 -101
97 -119 81 -16 -15 -20 -15 -31 -1 -10 12 -5 23 28 62 108 128 169 153 234 94z
m-4521 -114 c40 -27 79 -82 79 -112 0 -12 -10 -31 -23 -43 -23 -22 -24 -22
-41 -3 -11 12 -14 21 -7 26 35 21 -12 95 -61 95 -49 0 -54 -33 -18 -123 35
-88 33 -114 -13 -153 -46 -39 -106 -30 -159 23 -51 51 -61 103 -28 138 22 23
25 24 42 8 17 -15 17 -18 2 -34 -21 -23 -11 -51 27 -84 36 -29 55 -31 81 -8
24 21 23 29 -12 117 -35 87 -33 113 12 151 37 31 75 32 119 2z m4263 -223 c99
-58 151 -84 164 -80 11 4 24 0 31 -8 9 -11 2 -22 -39 -56 -48 -40 -52 -42 -64
-24 -12 16 -12 20 1 29 13 10 10 15 -21 33 l-37 22 -49 -41 c-47 -39 -48 -41
-37 -75 9 -29 14 -34 33 -30 12 3 27 0 33 -8 8 -10 0 -22 -40 -56 -45 -38 -52
-41 -66 -28 -12 13 -12 19 -3 35 11 16 3 44 -45 178 l-58 158 22 19 c13 10 25
18 26 18 2 0 69 -39 149 -86z m-3987 -10 c48 -28 93 -87 93 -122 0 -13 -8 -34
-17 -46 -16 -21 -20 -22 -40 -9 -18 12 -20 18 -10 33 29 48 -41 120 -117 120
-54 0 -100 -29 -126 -79 -40 -80 -15 -154 65 -193 42 -20 45 -21 63 -5 22 21
36 21 51 3 8 -10 6 -19 -10 -40 -55 -70 -209 14 -238 130 -32 124 84 256 209
238 19 -3 54 -17 77 -30z m3730 -107 c63 -60 53 -136 -26 -189 -25 -17 -48
-33 -50 -34 -2 -2 7 -19 19 -38 22 -36 38 -44 56 -26 6 6 14 3 22 -10 11 -17
6 -24 -49 -61 -57 -38 -61 -40 -74 -23 -11 16 -10 20 6 32 17 12 14 19 -58
128 -66 99 -80 114 -99 110 -13 -4 -27 0 -33 8 -10 12 2 24 66 67 126 85 162
91 220 36z m-3446 -88 c176 -59 186 -293 17 -364 -122 -50 -258 40 -258 172 0
89 37 148 115 184 46 22 79 23 126 8z m3135 -74 c9 -14 14 -32 10 -40 -7 -19
-42 -19 -50 0 -7 19 -29 19 -66 0 -34 -17 -45 -46 -30 -75 10 -19 19 -20 98
-18 98 2 124 -7 148 -54 22 -43 11 -90 -31 -127 -67 -59 -145 -61 -181 -5 -17
25 -17 27 2 41 17 12 21 12 36 -7 36 -44 128 -8 128 50 0 42 -28 53 -114 46
-86 -8 -113 4 -139 57 -18 36 -18 38 0 74 36 74 155 110 189 58z m-2808 -100
c12 -12 -10 -36 -27 -30 -18 5 -20 -2 -26 -92 -3 -54 -8 -116 -12 -137 -5 -39
-5 -39 88 65 69 77 89 105 76 107 -18 4 -22 19 -9 39 11 18 117 -30 117 -54 0
-12 -7 -17 -21 -16 -16 2 -51 -30 -134 -122 -61 -69 -119 -125 -128 -125 -44
1 -45 9 -35 186 7 136 7 171 -4 180 -14 12 -17 36 -7 47 5 5 110 -36 122 -48z
m2386 -75 c51 -19 74 -116 37 -161 l-18 -23 53 -43 c30 -24 59 -41 67 -37 9 3
16 -3 20 -16 4 -16 -1 -23 -19 -31 -38 -14 -42 -13 -104 41 -59 51 -77 58
-110 40 -18 -10 -18 -12 -2 -56 14 -38 20 -44 38 -40 23 6 43 -20 27 -34 -7
-7 -118 -50 -127 -50 -2 0 -6 9 -9 21 -4 15 0 23 14 26 10 3 19 9 19 13 0 4
-20 63 -44 131 -42 117 -46 124 -70 122 -24 -2 -29 6 -25 35 2 11 170 71 201
71 15 1 38 -3 52 -9z m-2019 -55 c65 -19 119 -36 121 -38 2 -1 -2 -21 -7 -43
-9 -36 -13 -40 -36 -36 -19 4 -23 9 -19 27 5 19 -1 24 -50 39 -31 10 -57 16
-59 14 -1 -2 -9 -26 -18 -55 l-15 -52 62 -19 c50 -15 60 -21 58 -38 -5 -26 -3
-26 -58 -9 -27 8 -55 15 -62 15 -13 0 -25 -25 -36 -77 -7 -31 -7 -32 45 -47
66 -20 68 -20 77 3 5 14 12 17 29 10 20 -7 21 -11 10 -46 -6 -21 -12 -40 -13
-41 -1 -2 -62 13 -134 35 -114 33 -130 40 -128 58 2 13 11 20 28 20 22 0 27 9
62 125 38 128 40 150 13 150 -17 0 -18 2 -9 24 8 21 2 22 139 -19z m1738 -35
c3 -13 -2 -21 -18 -27 l-22 -8 24 -105 c26 -116 24 -161 -10 -198 -61 -66
-177 -73 -230 -15 -16 18 -67 195 -67 235 0 11 -10 18 -27 20 -16 2 -29 10
-31 20 -2 13 12 20 67 32 86 20 81 20 81 -5 0 -12 -8 -23 -20 -26 -24 -6 -25
4 4 -121 13 -56 31 -111 41 -122 27 -30 98 -28 130 5 31 30 31 53 4 176 -20
89 -23 95 -44 91 -16 -3 -24 2 -28 17 -4 17 0 22 21 27 15 3 41 10 57 14 48
13 62 11 68 -10z m-1450 -35 c43 -8 90 -21 106 -29 60 -31 66 -123 11 -169
-16 -14 -34 -27 -40 -29 -14 -4 28 -118 47 -125 7 -3 13 -16 13 -30 0 -22 -3
-24 -27 -18 -41 10 -50 21 -73 90 -22 67 -31 79 -67 88 -28 6 -29 4 -38 -55
-7 -44 -6 -48 14 -48 20 0 30 -28 16 -42 -5 -5 -66 4 -122 17 -33 8 -31 45 1
45 29 0 29 -1 55 152 25 141 25 128 1 128 -13 0 -20 7 -20 20 0 25 17 25 123
5z m928 -46 c104 -35 158 -133 130 -237 -44 -162 -262 -190 -348 -45 -87 149
56 336 218 282z m-461 -13 c0 -16 -14 -36 -26 -36 -19 0 -19 -1 19 -69 l33
-60 37 60 c27 43 33 59 22 59 -9 0 -15 9 -15 25 0 25 1 26 62 23 51 -2 63 -6
66 -21 3 -12 -4 -20 -18 -24 -13 -4 -43 -39 -76 -90 -48 -75 -54 -89 -54 -138
0 -48 2 -54 23 -57 27 -4 32 -43 5 -42 -10 0 -43 1 -73 2 -48 2 -55 5 -55 22
0 13 7 20 19 20 15 0 19 10 24 56 6 54 4 60 -45 145 -35 63 -56 89 -69 89 -12
0 -19 7 -19 20 0 18 7 20 70 20 39 0 70 -2 70 -4z"/>
<path d="M4580 8625 c-7 -64 -11 -118 -9 -120 6 -6 139 27 139 34 0 6 -106
191 -114 199 -2 1 -9 -50 -16 -113z"/>
<path d="M6400 8556 c-35 -46 -62 -88 -61 -93 1 -4 31 -18 66 -30 l65 -22 0
115 c0 63 -2 114 -4 114 -2 0 -32 -38 -66 -84z"/>
<path d="M5108 7905 c-557 -70 -1063 -311 -1460 -693 -153 -148 -257 -272
-370 -441 -224 -338 -367 -737 -409 -1139 -18 -172 -7 -536 21 -691 145 -821
659 -1506 1405 -1872 247 -121 509 -200 795 -241 143 -20 535 -17 680 6 448
69 824 227 1188 497 123 92 395 364 489 490 263 352 428 742 495 1174 31 201
31 540 -1 743 -105 682 -459 1271 -1014 1685 -321 239 -695 397 -1108 468
-161 27 -548 35 -711 14z m350 -509 c50 -32 110 -99 118 -133 3 -16 7 -33 9
-39 8 -26 -19 -116 -62 -209 -26 -55 -54 -127 -63 -159 l-17 -60 -40 55 c-116
155 -141 302 -75 443 25 54 76 126 88 126 2 0 21 -11 42 -24z m-427 -91 c109
-39 144 -92 215 -327 4 -15 -2 -13 -38 7 -24 13 -75 31 -113 40 -162 37 -213
70 -235 153 -10 39 -6 123 8 146 6 11 112 -1 163 -19z m933 -6 c18 -93 -11
-188 -69 -221 -16 -9 -82 -31 -145 -48 -63 -17 -126 -38 -138 -46 -13 -9 -26
-13 -29 -10 -7 7 34 142 59 191 52 103 148 160 279 164 33 1 37 -2 43 -30z
m133 -182 c1 -29 17 -108 37 -176 37 -127 44 -189 25 -238 -16 -44 -69 -93
-133 -124 l-60 -28 -16 27 c-27 43 -57 133 -65 189 -8 62 14 157 52 223 20 33
148 180 158 180 0 0 1 -24 2 -53z m-1292 -19 c145 -162 170 -321 79 -500 -23
-45 -25 -47 -52 -37 -91 34 -154 93 -173 161 -13 51 -6 103 32 227 17 53 33
122 36 154 3 31 9 57 14 57 4 0 33 -28 64 -62z m-286 -34 c116 -104 119 -168
17 -367 -37 -73 -69 -149 -73 -169 -3 -21 -8 -38 -12 -38 -10 0 -70 96 -97
154 -54 119 -54 228 1 337 32 64 82 129 100 129 7 0 36 -21 64 -46z m1895 3
c20 -24 48 -70 63 -103 24 -51 28 -71 28 -149 0 -101 -20 -163 -89 -269 -29
-45 -40 -56 -47 -45 -5 8 -9 23 -9 33 0 11 -33 84 -72 164 -65 129 -73 149
-73 202 0 49 5 66 30 102 29 40 107 108 125 108 5 0 25 -19 44 -43z m-1209
-167 c58 -40 103 -94 133 -160 22 -46 27 -73 30 -172 6 -147 1 -161 -35 -117
-16 18 -73 62 -128 97 -157 101 -205 157 -205 241 0 43 23 122 46 158 l14 23
51 -20 c28 -12 70 -34 94 -50z m589 9 c32 -70 37 -149 13 -195 -24 -47 -73
-90 -193 -169 -61 -41 -119 -86 -129 -102 l-19 -28 -7 25 c-11 40 -10 164 2
222 27 126 100 216 222 273 39 19 75 34 78 35 4 0 19 -27 33 -61z m-1555 -147
c8 -264 7 -285 -13 -326 -22 -44 -88 -91 -151 -107 -22 -6 -48 -12 -57 -15
-13 -4 -20 7 -33 48 -60 201 -1 354 190 491 28 20 52 37 55 37 3 0 7 -57 9
-128z m2402 97 c190 -135 255 -291 201 -484 -17 -58 -18 -60 -47 -56 -60 7
-133 42 -168 80 -50 55 -60 114 -46 252 6 60 9 138 7 174 -2 36 -1 65 3 65 3
0 26 -14 50 -31z m-2015 -240 c23 -26 103 -67 210 -108 121 -47 168 -80 189
-134 14 -37 15 -54 7 -94 -19 -86 -29 -103 -59 -103 -39 0 -167 36 -215 61
-64 32 -133 104 -158 162 -24 54 -32 155 -17 210 9 33 18 34 43 6z m1619 -87
c0 -75 -4 -95 -28 -144 -45 -91 -139 -156 -282 -193 -101 -26 -111 -23 -130
36 -12 34 -16 70 -13 107 7 80 46 114 206 177 68 27 147 65 175 85 32 23 56
34 62 28 5 -5 10 -48 10 -96z m296 -160 c26 -193 -43 -320 -207 -382 -30 -11
-61 -20 -69 -20 -7 0 -29 30 -47 67 -26 53 -33 80 -33 125 1 77 30 117 165
228 58 47 116 103 130 124 l25 38 12 -49 c7 -26 18 -85 24 -131z m-2196 137
c11 -16 52 -55 90 -86 107 -87 165 -144 187 -187 28 -54 21 -127 -18 -203 -28
-54 -32 -58 -63 -55 -47 4 -132 46 -175 88 -57 56 -79 107 -84 201 -4 80 21
273 36 273 4 0 16 -14 27 -31z m783 -46 c186 -92 278 -247 258 -436 l-8 -67
-42 0 c-72 0 -147 28 -186 69 -46 48 -60 96 -71 250 -8 116 -15 156 -34 204
-10 24 -2 22 83 -20z m647 7 c-10 -19 -21 -90 -30 -185 -8 -86 -21 -171 -30
-192 -35 -83 -118 -133 -222 -133 -53 0 -57 12 -51 143 3 73 10 104 31 150 35
77 114 153 213 205 97 51 110 53 89 12z m-1820 -168 c55 -43 85 -104 85 -170
0 -19 -12 -95 -26 -168 -21 -107 -24 -143 -16 -179 l10 -45 -39 31 c-65 51
-128 130 -167 208 -32 66 -36 83 -37 150 0 75 21 160 51 208 l14 23 50 -19
c27 -10 61 -28 75 -39z m3063 10 c77 -179 47 -323 -101 -479 -39 -41 -79 -79
-89 -84 -16 -9 -17 -7 -8 16 15 39 12 95 -9 198 -32 152 -34 172 -17 229 18
64 59 107 136 142 30 14 58 26 61 26 4 0 16 -21 27 -48z m-309 -153 c93 -174
95 -305 6 -444 -18 -27 -41 -58 -51 -67 -18 -16 -21 -15 -60 15 -90 70 -124
145 -104 226 6 25 36 100 67 165 40 84 58 135 61 172 l4 54 19 -24 c10 -13 36
-57 58 -97z m-2448 -112 c58 -120 64 -138 64 -197 0 -79 -23 -122 -99 -182
l-50 -40 -33 38 c-44 52 -80 127 -95 196 -20 97 17 231 97 353 l40 59 7 -47
c3 -26 35 -107 69 -180z m479 142 c14 -9 62 -30 106 -48 80 -32 119 -61 145
-111 16 -31 14 -140 -3 -198 l-13 -43 -63 32 c-78 40 -154 114 -188 181 -26
51 -54 160 -54 212 l0 29 23 -19 c12 -11 33 -27 47 -35z m1400 -63 c-18 -91
-54 -161 -112 -219 -61 -60 -175 -126 -183 -105 -28 86 -33 180 -11 232 19 45
52 68 156 111 48 21 103 50 122 65 l33 28 3 -26 c2 -15 -2 -53 -8 -86z m-964
-191 c160 -78 234 -226 220 -440 -4 -55 -10 -118 -14 -140 l-8 -40 -27 58
c-38 83 -78 129 -178 208 -105 83 -134 117 -151 170 -13 45 -3 112 27 183 15
36 18 38 48 32 18 -3 55 -18 83 -31z m611 -25 c14 -33 23 -77 23 -111 0 -75
-29 -116 -150 -214 -112 -90 -140 -122 -179 -205 -34 -72 -36 -69 -50 69 -21
198 27 354 133 435 49 37 157 87 181 84 14 -2 27 -20 42 -58z m-1096 -9 c69
-26 147 -94 210 -184 27 -39 48 -71 47 -73 -2 -1 -25 2 -51 7 -30 5 -84 5
-140 -1 -198 -21 -265 -8 -324 65 -26 32 -63 126 -63 162 0 11 66 36 120 47
46 9 146 -3 201 -23z m1709 6 c44 -13 45 -14 44 -54 -1 -52 -47 -146 -83 -172
-54 -39 -109 -46 -258 -34 -76 6 -157 8 -180 4 -24 -5 -43 -5 -43 -2 0 15 78
119 120 162 50 50 124 93 187 109 46 11 152 5 213 -13z m-2500 -135 c62 -31
112 -91 194 -236 28 -48 66 -105 85 -128 l35 -41 -70 7 c-223 23 -352 83 -403
190 -43 89 -51 229 -13 240 35 10 119 -6 172 -32z m3190 32 l32 -7 -4 -81
c-12 -215 -136 -310 -443 -342 l-70 -7 36 40 c21 23 68 94 107 160 95 160 152
213 257 236 32 7 50 7 85 1z m-2559 -228 c70 -33 144 -98 196 -174 l43 -60
-63 5 c-34 3 -113 -2 -175 -12 -204 -30 -282 6 -333 152 -10 31 -19 61 -19 68
0 7 28 20 63 30 34 9 67 19 72 21 6 2 44 2 86 0 55 -3 91 -11 130 -30z m2057
8 c60 -20 62 -26 31 -109 -30 -81 -70 -122 -137 -141 -51 -15 -65 -15 -189 1
-73 10 -156 15 -183 13 -28 -3 -50 -3 -50 -1 0 12 57 85 103 132 57 58 115 96
180 117 53 18 173 12 245 -12z m-1617 6 c70 -14 163 -58 216 -104 68 -59 138
-174 173 -281 36 -114 37 -125 8 -98 -36 32 -102 62 -242 109 -151 50 -224 95
-272 169 -34 52 -68 152 -62 183 5 28 91 38 179 22z m1017 1 c23 -5 45 -10 47
-13 9 -9 -26 -122 -52 -170 -52 -96 -129 -144 -331 -208 -56 -18 -127 -47
-157 -66 -65 -39 -67 -34 -31 74 36 106 73 168 145 244 108 115 244 165 379
139z m1021 -363 c-57 -110 -141 -196 -224 -228 -63 -24 -190 -33 -247 -17 -24
6 -28 12 -28 45 0 68 29 144 69 182 49 47 97 60 260 70 79 4 151 14 171 22 19
9 37 14 38 12 2 -1 -16 -40 -39 -86z m-3192 71 c15 -6 91 -15 168 -19 81 -5
159 -16 185 -25 86 -30 129 -96 144 -217 6 -53 7 -53 -84 -63 -171 -20 -317
66 -408 242 -53 103 -53 101 -5 82z m981 -19 c45 -20 152 -115 152 -135 0 -6
-16 -30 -36 -53 -48 -57 -121 -79 -203 -63 -119 23 -264 120 -320 212 -29 47
-27 50 20 34 54 -19 101 -18 169 5 75 24 164 25 218 0z m1440 0 c74 -23 122
-25 175 -6 31 11 37 11 37 0 0 -25 -86 -119 -147 -161 -172 -115 -328 -117
-408 -4 l-30 43 56 52 c103 96 188 117 317 76z m-1170 -105 c125 -30 210 -91
265 -192 26 -49 67 -195 67 -242 l0 -24 -23 21 c-27 25 -103 59 -215 97 -92
30 -156 73 -187 125 -34 58 -21 230 17 230 7 0 41 -7 76 -15z m791 -29 c24
-95 10 -171 -41 -224 -42 -43 -66 -55 -212 -108 -65 -24 -134 -55 -153 -70
l-34 -26 6 39 c17 97 37 167 61 214 54 107 147 178 267 204 94 20 93 20 106
-29z m-1203 -143 c55 -18 104 -47 151 -90 34 -31 113 -130 113 -143 0 -4 -17
-4 -37 1 -21 5 -106 6 -190 2 -175 -7 -220 3 -272 63 -33 37 -69 140 -54 155
30 30 214 38 289 12z m1747 6 c48 -10 57 -15 57 -34 0 -42 -32 -113 -66 -148
-52 -52 -99 -61 -272 -53 -81 3 -164 2 -184 -3 -21 -5 -38 -7 -38 -4 0 13 74
104 118 145 104 98 227 128 385 97z m-2315 -94 c73 -8 150 -19 170 -26 53 -16
96 -52 116 -94 22 -47 41 -164 28 -177 -5 -5 -40 -12 -78 -15 -142 -12 -267
46 -350 163 -40 56 -94 161 -94 184 0 5 17 2 37 -7 21 -8 97 -21 171 -28z
m2852 21 c-56 -149 -155 -268 -252 -304 -72 -27 -143 -36 -212 -27 l-56 6 0
48 c0 108 48 191 133 226 21 8 86 20 145 25 143 13 182 20 212 36 36 19 41 17
30 -10z m-1804 -147 c169 -80 254 -208 254 -380 0 -85 -3 -89 -67 -89 -77 0
-130 18 -174 60 -45 42 -62 97 -83 262 -8 64 -22 130 -30 147 -9 16 -16 33
-16 37 0 10 47 -5 116 -37z m664 37 c0 -2 -7 -19 -15 -39 -14 -34 -49 -276
-41 -285 3 -2 10 7 17 19 18 35 100 119 140 145 95 60 224 68 374 23 l76 -22
-42 -24 c-23 -13 -86 -66 -139 -117 -54 -51 -117 -103 -142 -114 -81 -40 -171
-22 -250 47 -20 17 -38 31 -40 31 -3 0 -10 -17 -16 -38 -24 -79 -113 -132
-222 -132 l-58 0 -6 53 c-23 190 83 347 292 433 56 23 72 28 72 20z m-917
-140 c71 -35 116 -74 163 -141 l39 -57 -30 -25 c-48 -40 -126 -73 -173 -73
-63 0 -115 32 -225 136 -53 52 -116 103 -139 115 -50 26 -45 30 69 59 108 27
223 22 296 -14z m-380 -127 c55 -15 106 -71 172 -190 32 -57 76 -123 98 -146
l40 -43 -82 0 c-211 0 -344 74 -415 231 -39 86 -42 105 -14 120 67 36 138 46
201 28z m1948 -3 c24 -7 56 -18 71 -24 l27 -11 -18 -54 c-48 -140 -122 -218
-246 -261 -53 -19 -265 -35 -265 -20 0 4 15 24 34 44 19 19 60 80 91 135 67
116 104 160 160 186 48 22 87 24 146 5z m-1317 -236 c78 -24 168 -101 207
-175 l24 -46 -30 -25 c-54 -44 -145 -84 -192 -84 -78 0 -129 37 -226 166 -25
34 -69 82 -97 107 l-50 45 77 15 c114 22 209 21 287 -3z m864 -1 c28 -7 52
-15 52 -18 -1 -3 -15 -15 -33 -26 -17 -11 -67 -65 -112 -119 -107 -133 -140
-158 -210 -164 -48 -4 -64 0 -118 27 -34 17 -75 42 -90 56 l-28 25 20 37 c46
91 134 163 230 190 54 15 211 11 289 -8z m-547 -304 c61 -55 115 -78 197 -83
l74 -5 -6 -27 c-3 -16 -8 -115 -12 -222 -10 -296 11 -372 116 -420 50 -23 51
-24 45 -58 -4 -19 -9 -38 -11 -42 -3 -5 -207 -8 -453 -8 l-449 0 -6 23 c-13
50 -8 63 34 76 53 16 106 70 121 123 8 29 12 129 12 301 l0 257 66 0 c78 0
129 22 186 80 21 22 41 40 43 40 3 0 22 -16 43 -35z"/>
<path d="M7775 7881 c-132 -33 -285 -203 -285 -318 0 -94 85 -183 175 -183 93
0 245 114 300 224 27 55 34 140 14 179 -39 75 -126 117 -204 98z"/>
<path d="M2142 6055 c-56 -7 -105 -15 -108 -17 -4 -5 177 -118 189 -118 2 0 9
26 16 58 7 31 15 65 17 75 3 9 2 16 -3 16 -4 -1 -54 -7 -111 -14z"/>
<path d="M1929 5415 c-32 -17 -49 -55 -56 -122 l-6 -53 132 0 131 0 0 50 c0
57 -19 101 -52 124 -28 20 -114 20 -149 1z"/>
<path d="M2760 3471 c-57 -44 -106 -84 -108 -91 -2 -6 16 -31 41 -55 38 -39
50 -45 86 -45 47 0 85 17 119 52 49 53 47 124 -6 185 l-27 32 -105 -78z"/>
<path d="M7670 3204 c-22 -20 -40 -40 -40 -44 0 -4 21 -24 46 -45 l45 -38 35
34 c40 39 43 71 9 104 -32 33 -48 32 -95 -11z"/>
<path d="M7434 2881 c12 -33 25 -63 28 -66 4 -4 22 6 42 21 l35 28 -60 38
c-33 21 -61 38 -63 38 -2 0 6 -27 18 -59z"/>
<path d="M7143 2764 l-43 -25 41 -60 40 -60 32 22 c44 30 57 48 57 79 0 33
-34 70 -63 70 -12 0 -41 -12 -64 -26z"/>
<path d="M3706 2640 c-86 -76 -62 -209 43 -241 32 -10 45 -8 84 9 57 25 87 70
87 130 0 85 -48 132 -134 132 -36 0 -52 -6 -80 -30z"/>
<path d="M6443 2417 c-18 -7 -33 -16 -34 -20 -3 -13 35 -117 42 -117 4 0 28 9
53 20 51 21 66 52 45 92 -21 41 -46 47 -106 25z"/>
<path d="M4784 2236 l-10 -65 55 -7 c49 -6 56 -4 73 16 10 12 18 35 18 51 0
34 -27 54 -86 64 l-41 6 -9 -65z"/>
<path d="M5653 2249 c-72 -21 -108 -107 -78 -184 42 -111 166 -125 232 -26 71
105 -33 247 -154 210z"/>
</g>
</svg>
