<svg width="665" height="667" viewBox="0 0 665 667" fill="none" xmlns="http://www.w3.org/2000/svg">
<g clip-path="url(#clip0_3_3)">
<path d="M470.556 246.075L463.301 289.012C463.069 290.385 462.263 291.593 461.084 292.335C459.908 293.077 458.469 293.281 457.129 292.897C455.792 292.515 454.68 291.579 454.075 290.325C453.469 289.072 453.425 287.62 453.956 286.333L470.556 246.075Z" fill="#F25C19"/>
<path d="M227.005 569.369C229.235 570.764 228.553 573.912 226.937 575.386C224.961 577.195 222.149 577.3 219.587 577.376C216.856 577.445 214.119 577.437 211.392 577.585C210.391 577.641 209.124 577.815 208.673 578.849C208.341 579.6 208.669 580.419 209 581.132C209.337 581.855 209.779 582.572 209.925 583.361C210.141 584.437 209.671 585.441 208.895 586.156C207.28 587.614 205.069 587.328 203.199 586.491C198.909 584.565 193.833 581.772 189.045 583.084C186.76 583.709 184.776 585.285 184.347 587.71C183.916 590.121 184.968 592.556 185.941 594.732C186.128 595.155 187.217 595.449 187.604 595.601C188.015 595.765 188.436 595.933 188.86 596.048C188.909 596.064 189.427 596.161 189.412 596.128C188.527 594.132 187.591 591.967 187.74 589.755C187.9 587.517 189.344 585.78 191.355 584.897C196.268 582.751 200.776 586.109 205.312 587.741C207.345 588.472 209.805 589.207 211.767 588.002C212.525 587.532 213.168 586.807 213.389 585.933C213.632 584.933 213.208 584.009 212.779 583.128C212.443 582.452 212.027 581.747 212.013 580.983C211.987 579.633 213.261 579.145 214.413 579.048C217.217 578.813 220.089 578.885 222.907 578.813C225.595 578.734 228.66 578.617 230.639 576.564C232.388 574.759 232.344 571.825 230.076 570.401C229.365 569.957 228.524 569.651 227.725 569.388C227.541 569.324 226.407 568.995 227.005 569.369Z" fill="#F25C19"/>
<path d="M354.436 614.057C355.373 612.355 356.124 610.443 356.459 608.522C356.581 607.817 356.644 607.092 356.719 606.377C356.748 606.028 356.783 605.681 356.833 605.339C356.861 605.173 356.925 604.981 356.936 604.809C356.808 606.624 355.897 606.763 356.703 605.893C359.085 603.313 363.361 604.879 365.805 606.559C367.265 607.565 368.608 608.732 370.101 609.667C371.501 610.56 373.304 611.493 374.996 611.221C376.62 610.948 377.364 609.486 377.957 608.084C378.632 606.477 379.269 604.751 379.177 602.977C379.085 601.264 378.345 599.728 377.733 598.141C377.377 597.215 377.048 596.248 376.96 595.232C376.92 594.785 377 594.389 376.992 593.945C376.995 595.486 376.115 595.709 376.708 595.034C376.911 594.791 377.096 594.565 377.313 594.356C380.165 591.579 384.651 591.903 388.273 592.528C391.977 593.151 395.591 594.451 398.859 596.361C401.881 598.141 404.896 600.78 405.287 604.509C405.333 604.981 405.341 605.467 405.303 605.96C405.277 606.136 405.191 606.38 405.208 606.556C405.384 606.067 405.56 605.567 405.735 605.081C405.66 605.179 405.588 605.261 405.523 605.369C404.723 606.181 403.923 606.795 402.833 607.188C400.98 607.856 398.876 607.892 396.955 607.539C395.188 607.209 393.385 606.417 392.213 604.989C391.645 604.283 391.247 603.429 391.075 602.529C391 602.136 390.968 601.743 390.991 601.344C390.997 601.175 391.061 600.94 391.047 600.775C390.819 601.408 390.592 602.04 390.361 602.676C390.468 602.537 390.583 602.396 390.709 602.291C391.247 601.721 391.507 600.683 391.761 599.955C391.873 599.645 392.172 599.096 392.119 598.769C392.116 598.727 392.216 598.336 392.047 598.515C390.673 599.952 389.844 602.344 389.517 604.288C389.267 605.843 389.673 607.507 390.639 608.745C393.02 611.805 398.148 612.291 401.499 611.004C403.269 610.324 404.455 609.056 405.249 607.337C406.144 605.439 406.997 603.263 406.855 601.105C406.575 596.983 403.265 594.124 399.917 592.26C396.157 590.145 391.983 588.821 387.733 588.367C383.577 587.945 379.175 588.655 377.12 592.734C376.179 594.621 375.197 596.917 375.437 599.092C375.677 601.283 376.923 603.159 377.433 605.259C377.64 606.103 377.645 606.94 377.611 607.796C377.556 608.824 376.631 607.665 378.287 606.233C378.156 606.337 378.068 606.528 377.941 606.633C377.536 607.039 377.045 607.253 376.495 607.353C374.597 607.663 372.585 606.488 371.072 605.461C367.76 603.201 363.821 599.252 359.476 601.119C357.372 602.037 356.529 604.517 355.868 606.564C355.565 607.477 355.363 608.408 355.249 609.364C355.185 609.821 355.151 610.297 355.1 610.749C355.083 611.009 355.052 611.247 355.019 611.481C354.881 612.516 354.383 612.707 355.529 610.627C355.08 611.461 354.728 612.352 354.441 613.244C354.38 613.434 354.061 614.734 354.436 614.057Z" fill="#FBC907"/>
<path d="M567.463 190.528L574.129 184.224L576.827 187.073L573.508 190.208L578.967 194.377L573.972 199.096L579.433 203.269L574.44 207.988L579.899 212.157L574.905 216.877L580.363 221.053L575.369 225.775L580.825 229.956L574.167 236.267L571.467 233.419L574.788 230.272L569.329 226.088L574.317 221.369L568.861 217.195L573.851 212.475L568.395 208.307L573.385 203.585L567.929 199.412L572.92 194.695L567.463 190.528Z" fill="#F03B87"/>
<path d="M512.361 647.568L475.923 600.502L460.687 618.032L512.361 647.568Z" fill="#FBC907"/>
<path d="M322.044 528.032L353.479 540.1L341.412 571.537L309.976 559.471L322.044 528.032Z" fill="#F57A3B"/>
<path d="M64.9609 261.435L64.9625 295.453H30.9427L30.9437 261.435H64.9609Z" fill="#F57A3B"/>
<path d="M625.585 458.599C623.412 460.904 621.528 464.468 623.633 467.391C624.395 468.451 625.511 468.948 626.787 469.171C628.777 469.505 630.889 469.505 632.928 469.344C634.708 469.196 636.46 468.892 638.224 468.644C639.088 468.532 639.957 468.397 640.823 468.285C641.328 468.213 641.852 468.149 642.372 468.065C642.62 468.029 642.893 468.004 643.151 467.983C640.937 467.683 640.249 467.707 641.119 468.076C642.524 469.056 643.284 470.14 643.68 471.839C644.063 473.485 644.057 475.28 643.756 476.941C643.48 478.417 642.936 479.904 641.933 481.049C640.769 482.405 639.173 482.944 637.531 483.431C634.557 484.343 632.16 485.78 630.919 488.767C628.489 494.528 632.299 500.172 637.919 501.756C641.423 502.751 645.755 502.821 649.319 501.879C652.851 500.948 655.888 498.579 658.012 495.632C658.048 495.573 655.492 495.299 655.272 495.283C654.767 495.285 652.86 494.993 652.505 495.481C650.775 497.927 648.448 499.925 645.643 501.055C644.999 501.317 644.307 501.552 643.611 501.7C643.248 501.785 641.721 501.825 643.363 501.895C644.943 501.964 643.683 501.865 643.332 501.777C641.992 501.453 640.723 500.861 639.623 500.072C635.176 496.912 634.244 490.373 638.121 486.224C640.271 483.944 643.396 484.049 645.913 482.479C648.296 481.004 649.263 478.259 649.423 475.596C649.592 473.037 649.201 469.681 646.797 468.236C645.628 467.555 644.108 467.521 642.76 467.455C640.876 467.368 639 467.483 637.116 467.744C635.232 468.007 633.324 468.264 631.424 468.535C631.076 468.585 630.728 468.637 630.396 468.671C629.963 468.727 627.9 468.867 629.941 468.839C631.528 468.839 630.629 468.836 630.111 468.507C629.725 468.247 629.393 467.915 629.123 467.528C627.008 464.619 628.903 461.041 631.081 458.737C631.081 458.737 628.609 458.405 628.349 458.4C627.761 458.381 626.053 458.103 625.585 458.599Z" fill="#F03B87"/>
<path d="M246.028 439.355L280.719 468.461C281.893 469.447 282.048 471.2 281.06 472.379C280.073 473.556 278.319 473.707 277.143 472.721L242.456 443.613C241.279 442.625 241.123 440.871 242.112 439.696C243.099 438.52 244.855 438.365 246.028 439.355Z" fill="#5FC232"/>
<path d="M136.812 605.221C134.755 604.61 132.925 603.472 131.516 601.849C130.833 601.076 130.269 600.212 129.83 599.283C129.619 598.777 129.401 598.272 129.276 597.747C129.185 597.386 129.13 597.028 129.115 596.667C129.091 596.436 129.087 596.196 129.109 595.947C128.692 596.932 128.266 597.892 127.847 598.875C128.211 598.764 128.748 598.165 129.117 597.998C129.529 597.805 129.959 597.683 130.406 597.563C131.313 597.335 132.258 597.259 133.177 597.195C135.399 597.057 137.615 596.937 139.787 596.385C141.804 595.867 143.767 594.992 145.372 593.575C147.167 591.992 148.283 589.819 149.235 587.66C150.148 585.545 151.104 583.228 150.737 580.892C150.441 579.064 149.463 577.456 148.224 576.14C146.532 574.322 144.411 573.028 142.42 571.607C140.792 570.432 137.339 568.101 137.724 565.719C137.204 567.057 136.683 568.397 136.139 569.745C136.211 569.617 136.279 569.503 136.332 569.369C136.096 569.748 135.871 570.156 135.639 570.536C136.567 569.521 138.171 569.433 139.452 569.316C140.819 569.171 142.196 569.212 143.547 569.361C144.007 569.408 144.848 567.124 145.003 566.789C145.087 566.583 146.101 563.972 145.931 563.963C144.46 563.805 143.02 563.779 141.567 563.929C140.424 564.063 138.975 564.153 138.053 564.956C136.945 565.917 136.321 567.914 135.817 569.217C135.319 570.488 135.004 571.515 135.721 572.74C138.377 577.328 144.269 578.696 147.139 583.156C147.772 584.144 148.233 585.267 148.369 586.457C148.431 587.095 148.231 587.731 148.299 588.355C148.169 586.952 149.667 585.849 148.768 586.993C148.481 587.356 148.171 587.688 147.847 587.993C145.86 589.915 143.213 590.853 140.563 591.312C138.117 591.753 135.587 591.568 133.159 592.077C130.645 592.589 129.404 594.039 128.323 596.324C127.58 597.914 126.67 599.771 126.675 601.584C126.675 602.856 127.164 604.164 127.769 605.264C129.185 607.905 131.609 609.779 134.429 610.621C135.051 610.809 137.008 605.28 136.812 605.221Z" fill="#B61692"/>
<path d="M154.528 519.673L129.738 478.416L170.999 453.625L195.787 494.881L154.528 519.673Z" fill="#F57A3B"/>
<path d="M78.3464 560.409C80.1328 561.833 81.4817 563.685 82.2281 565.847C82.5921 566.883 82.8031 567.961 82.8688 569.053C82.8776 569.633 82.888 570.22 82.7995 570.789C82.75 571.177 82.6579 571.553 82.5287 571.917C82.4593 572.152 82.3688 572.391 82.2473 572.628C83.0521 571.822 83.8584 571.047 84.6588 570.241C84.2588 570.207 83.4869 570.583 83.0584 570.603C82.5755 570.627 82.1016 570.58 81.612 570.515C80.626 570.381 79.6651 570.077 78.7317 569.776C76.486 569.028 74.2536 568.261 71.8917 567.94C69.6969 567.646 67.4088 567.728 65.262 568.489C62.8604 569.335 60.8917 571.032 59.0953 572.781C57.3505 574.504 55.4817 576.409 54.914 578.86C54.4781 580.781 54.8011 582.757 55.4973 584.549C56.4453 587.016 58.0208 589.136 59.4193 591.331C60.5573 593.14 63.0339 596.813 61.7031 599.014C62.7473 597.9 63.7969 596.786 64.8724 595.673C64.7484 595.771 64.6364 595.857 64.5312 595.968C64.9151 595.686 65.2979 595.375 65.6823 595.093C64.3604 595.724 62.7432 595.171 61.4323 594.775C60.0251 594.373 58.6839 593.784 57.4099 593.1C56.9781 592.869 55.2344 594.788 54.9479 595.056C54.7839 595.227 52.7421 597.397 52.9088 597.475C54.2969 598.216 55.7073 598.813 57.1979 599.245C58.3828 599.572 59.8453 600.057 61.0729 599.636C62.5479 599.125 63.9625 597.407 64.9792 596.321C65.9765 595.267 66.6969 594.379 66.474 592.885C65.686 587.297 60.4193 583.603 59.3656 578.063C59.138 576.832 59.1276 575.54 59.4661 574.312C59.6615 573.661 60.1104 573.114 60.2943 572.472C59.8636 573.907 57.9437 574.397 59.2875 573.624C59.7145 573.383 60.1536 573.179 60.5973 573.005C63.3213 571.903 66.3063 572.032 69.1041 572.636C71.6917 573.176 74.112 574.365 76.7125 574.833C79.3959 575.328 81.1979 574.392 83.1745 572.569C84.5407 571.296 86.1787 569.829 86.8973 568.04C87.4027 566.784 87.4437 565.298 87.2839 563.971C86.936 560.803 85.2943 557.988 82.8473 556.034C82.3099 555.598 78.1755 560.273 78.3464 560.409Z" fill="#B61692"/>
<path d="M618.724 106.469L569.431 82.4307L593.472 33.1387L642.763 57.1787L618.724 106.469Z" fill="#F57A3B"/>
<path d="M84.7396 474.063C87.776 476.064 91.0323 473.821 93.026 471.565C94.2724 470.156 94.664 468.621 94.8995 466.776C95.0807 465.333 95.1579 463.947 94.4339 462.612C93.1292 460.159 90.488 458.903 88.8151 456.76C88.3412 456.165 88.0563 455.543 87.7864 454.836C87.7464 454.72 87.7536 454.571 87.6979 454.451C88.6631 456.604 87.0479 456.553 87.6396 455.884C87.9541 455.512 88.1891 455.129 88.5745 454.815C89.8527 453.76 91.4984 453.396 93.1355 453.345C96.25 453.243 99.9219 454.215 102.622 452.221C103.682 451.44 104.319 450.299 104.649 449.045C105.109 447.351 105.422 445.416 105.231 443.651C104.892 440.46 101.864 438.94 99.7979 436.875C99.2421 436.321 98.7412 435.724 98.3672 435.049C98.1875 434.728 98.0375 434.401 97.9307 434.049C97.8907 433.912 97.876 433.771 97.8281 433.639C97.5885 432.877 96.9984 436.355 97.6579 435.032C98.4027 433.553 99.9375 432.479 101.469 431.889C103.133 431.236 104.884 431.217 106.365 432.347C107.866 433.495 109.071 434.584 111.117 434.427C115.37 434.087 116.231 429.053 116.089 425.632C116.051 424.823 115.725 426.201 115.698 426.304C115.522 427.192 115.357 428.159 115.399 429.073C115.384 428.933 116.03 426.671 115.477 427.827C115.401 427.971 115.327 428.105 115.242 428.239C115.017 428.613 114.742 428.959 114.409 429.252C113.881 429.724 113.233 430.061 112.551 430.248C111.214 430.611 109.697 430.38 108.526 429.607C107.133 428.697 106.199 427.424 104.405 427.38C102.958 427.351 101.529 427.945 100.366 428.732C97.6875 430.516 96.8473 433.885 97.1172 436.985C97.3708 439.843 100.017 441.529 101.991 443.271C103.128 444.276 104.218 445.472 104.508 446.995C104.543 447.151 104.53 447.337 104.583 447.485C104.116 446.025 105.095 445.476 104.675 446.293C104.557 446.545 104.425 446.796 104.269 447.028C103.828 447.695 103.228 448.22 102.526 448.599C99.7839 450.069 96.4964 449.195 93.5312 449.321C90.4557 449.455 87.9984 450.915 87.3828 453.996C87.0661 455.501 86.7093 457.303 87.1849 458.833C87.5287 460.003 88.3489 460.993 89.2125 461.849C90.2527 462.869 91.4557 463.695 92.474 464.751C93.0027 465.301 93.4751 465.895 93.8255 466.561C94.012 466.901 94.1084 467.241 94.2432 467.592C94.2751 467.672 94.264 467.887 94.3193 467.951C94.0521 467.651 95.0364 465.443 94.2328 466.676C92.4521 469.395 88.5781 472.195 85.3011 470.033C85.2161 469.975 84.8489 471.873 84.8193 472.017C84.7823 472.331 84.4151 473.848 84.7396 474.063Z" fill="#F57A3B"/>
<path d="M318.865 52.6854L313.509 8.02937L275.392 41.1654L318.865 52.6854Z" fill="#FBC907"/>
<path d="M219.005 355.588L215.736 406.364L237.805 402.869L219.005 355.588Z" fill="#FBC907"/>
<path d="M189.599 46.4427C192.644 46.8894 196.531 46.4001 197.685 43.0987C198.104 41.8987 197.875 40.736 197.344 39.5947C196.499 37.824 195.324 36.1414 194.059 34.6107C192.955 33.2774 191.731 32.0534 190.555 30.7881C189.98 30.1601 189.388 29.5454 188.816 28.9161C188.473 28.5547 188.135 28.1734 187.776 27.8054C187.609 27.6281 187.437 27.4254 187.276 27.2307C188.272 29.16 188.676 29.6947 188.481 28.7974C188.48 27.1307 188.92 25.9227 190.052 24.6614C191.152 23.444 192.583 22.4454 194.071 21.7574C195.403 21.1547 196.885 20.76 198.357 20.92C200.083 21.0907 201.405 22.0614 202.705 23.0961C205.088 24.9574 207.572 26.064 210.637 25.384C216.576 24.1067 218.949 17.9334 217.076 12.576C215.915 9.23336 213.555 5.74269 210.819 3.43469C208.111 1.14402 204.532 0.0440516 201.007 5.16047e-05C200.937 -0.00128173 202.14 2.18803 202.252 2.37336C202.535 2.77069 203.365 4.45338 203.951 4.46138C206.863 4.47605 209.751 5.2147 212.212 6.81737C212.78 7.18537 213.351 7.60403 213.861 8.07603C214.129 8.31869 215.009 9.50938 214.149 8.16672C213.328 6.87205 213.949 7.9254 214.076 8.25207C214.563 9.5014 214.8 10.844 214.785 12.1587C214.748 17.4587 210.063 21.8427 204.599 21.0694C201.588 20.6307 199.929 18.084 197.28 16.956C194.775 15.8787 192.052 16.6414 189.84 17.9974C187.712 19.2894 185.259 21.4721 185.449 24.1881C185.559 25.5001 186.377 26.7307 187.073 27.8387C188.059 29.3841 189.195 30.8121 190.452 32.1694C191.711 33.5214 192.98 34.8974 194.255 36.256C194.487 36.504 194.723 36.756 194.935 37.0014C195.224 37.3147 196.48 38.8774 195.321 37.2694C194.44 36.0067 194.936 36.7227 194.964 37.3187C194.972 37.7721 194.892 38.2201 194.735 38.6521C193.597 41.9561 189.693 42.444 186.648 41.9947C186.648 41.9947 187.76 44.1441 187.9 44.3547C188.213 44.8307 188.944 46.3494 189.599 46.4427Z" fill="#F03B87"/>
<path d="M525.767 174.316C525.596 170.728 524.092 166.423 520.252 165.253C515.551 163.841 510.768 167.684 507.557 170.58C506.723 171.332 505.92 172.135 505.113 172.953C504.688 173.377 504.268 173.815 503.829 174.229C503.808 174.247 503.388 174.696 503.311 174.708C503.8 174.377 503.835 174.345 503.375 174.617C503.204 174.712 503.032 174.792 502.855 174.847C500.689 175.705 498.724 175.025 497.136 173.528C495.751 172.236 494.644 170.607 492.952 169.697C491.159 168.751 488.979 168.712 487.019 169.207C484.475 169.861 482.235 171.448 480.223 173.052C478.057 174.771 476.248 176.795 474.46 178.895C474.281 179.108 474.812 178.864 474.725 178.892C475.079 178.783 475.523 178.408 475.783 178.219C476.476 177.74 477.217 177.224 477.776 176.58C478.491 175.739 479.203 174.884 479.973 174.071C480.316 173.727 480.645 173.368 481.004 173.048C481.14 172.907 481.3 172.749 481.471 172.619C481.089 172.915 481.639 172.549 481.739 172.493C483.436 171.589 485.528 171.165 487.444 171.472C489.28 171.764 490.656 172.775 491.908 174.064C493.051 175.247 494.105 176.641 495.657 177.339C497.412 178.12 499.283 177.639 500.907 176.757C502.931 175.669 504.815 174.177 506.473 172.604C507.789 171.376 509.229 169.504 510.589 168.652C512.341 167.581 514.749 167.147 516.745 167.692C520.692 168.776 522.245 173.152 522.423 176.793C522.431 176.847 524.084 175.815 524.215 175.715C524.524 175.493 525.785 174.764 525.767 174.316Z" fill="#AFD819"/>
<path d="M457.921 198.948L439.315 242.784L395.48 224.177L414.084 180.341L457.921 198.948Z" fill="#F57A3B"/>
<path d="M468.073 55.2226C469.459 57.068 471.953 57.7747 474.1 58.3307C475.839 58.776 477.627 58.9787 479.288 58.1987C480.048 57.8494 481.057 57.1787 481.164 56.2853C481.289 55.2173 480.053 54.1733 479.389 53.4973C477.633 51.7147 475.579 50.0707 474.632 47.7027C473.835 45.7467 473.971 43.5827 475.52 42.064C476.277 41.3106 477.273 40.792 478.339 40.62C478.599 40.576 478.871 40.5787 479.123 40.544C480.62 40.36 477.924 40.4533 478.073 40.1213C478.129 40.0187 479.625 41.396 479.701 41.472C481.065 43.0667 481.228 45.396 483.235 46.448C485.417 47.62 488.317 48.444 490.757 47.8267C492.556 47.3747 495.451 46.492 495.708 44.36C495.928 42.6187 494.515 40.8866 493.24 39.8586C491.621 38.5546 489.472 37.7026 488.353 35.8733C487.359 34.22 487.781 32.3187 489.101 31.0267C489.771 30.376 490.625 29.876 491.528 29.62C492.037 29.4773 492.543 29.424 493.072 29.4267C492.895 29.416 493.983 29.4493 493.98 29.4946C493.069 29.1706 492.941 29.1493 493.587 29.424C493.763 29.5093 493.952 29.6027 494.121 29.7C496.355 30.8747 498.289 32.3653 500.699 33.204C502.639 33.8973 505.249 34.8773 507.22 33.8146C508.815 32.932 509.516 30.9666 509.372 29.2306C509.187 26.964 507.485 25.1173 505.641 23.8893C503.709 22.6106 501.44 22.024 499.535 20.7586C497.415 19.3546 496.679 17.1707 498.211 15.0267C499.748 12.8653 502.347 11.364 504.828 10.496C504.895 10.4773 504.124 10.1053 504.253 10.1573C503.781 9.95068 503.263 9.772 502.767 9.61867C502.191 9.44134 501.161 8.95465 500.564 9.16398C497.46 10.236 490.829 14.0373 493.745 18.0813C494.739 19.4693 496.441 20.2613 497.953 20.964C499.907 21.86 501.836 22.6533 503.327 24.2373C504.717 25.692 505.435 27.612 504.975 29.5706C504.524 31.5186 503.235 32.6133 501.256 32.8706C501.111 32.8586 500.972 32.8613 500.827 32.8493C502.581 33.4813 503.096 33.628 502.384 33.2973C502.139 33.152 501.855 33.036 501.584 32.8827C501.143 32.628 500.717 32.336 500.281 32.0693C499.216 31.3827 498.132 30.7346 496.989 30.1946C494.688 29.128 492.035 28.1786 489.479 28.0373C485.969 27.8266 481.785 31.152 484.236 34.7706C486.16 37.6013 491.557 38.7093 491.459 42.764C491.397 45.0507 488.365 46.0467 486.489 46.464C486.023 46.5787 485.537 46.6547 485.052 46.6547C483.184 46.6853 487.536 48.0213 486.752 47.2346C486.561 47.0386 486.341 46.8733 486.16 46.6493C485.456 45.776 485.172 44.648 484.595 43.676C483.5 41.828 481.675 40.8493 479.673 40.16C477.592 39.44 475.224 38.6827 473.083 39.536C470.927 40.3867 469.575 42.4573 469.908 44.78C470.248 47.1973 471.973 49.12 473.673 50.788C474.621 51.7227 475.793 52.6413 476.529 53.7693C477.265 54.9053 476.623 55.86 475.615 56.5267C474.753 57.0827 473.723 57.3547 472.687 57.336C472.507 57.3413 472.269 57.2853 472.084 57.2946C473.993 57.164 474.443 58.2973 473.407 57.5747C472.933 57.248 472.571 56.8493 472.219 56.4027C471.807 55.8493 470.284 55.6213 469.636 55.4307C469.405 55.3693 467.932 55.048 468.073 55.2226Z" fill="#60CAC9"/>
<path d="M634.532 316.387C634.823 313.319 631.849 311.776 629.369 311.183C627.82 310.811 626.516 311.128 625.04 311.687C623.893 312.125 622.824 312.619 622.112 313.692C620.8 315.64 620.907 318.116 619.971 320.22C619.712 320.811 619.361 321.271 618.939 321.753C618.869 321.831 618.755 321.884 618.689 321.972C619.915 320.395 620.519 321.621 619.784 321.447C619.38 321.359 619 321.337 618.612 321.172C617.315 320.636 616.388 319.551 615.699 318.348C614.384 316.056 613.651 312.923 611.085 311.697C610.08 311.215 608.972 311.195 607.905 311.447C606.455 311.776 604.881 312.311 603.639 313.155C601.387 314.677 601.453 317.547 600.731 319.913C600.539 320.548 600.292 321.161 599.936 321.709C599.765 321.972 599.58 322.213 599.361 322.432C599.277 322.52 599.176 322.585 599.093 322.673C598.623 323.155 601.453 322.213 600.204 322.247C598.804 322.279 597.387 321.555 596.337 320.645C595.188 319.66 594.477 318.359 594.733 316.803C594.996 315.225 595.328 313.888 594.4 312.42C592.455 309.376 588.347 310.733 585.847 312.2C585.253 312.551 586.415 312.247 586.503 312.225C587.233 312.004 588.023 311.741 588.693 311.348C588.593 311.413 586.643 311.828 587.728 311.787C587.863 311.787 587.999 311.787 588.129 311.797C588.501 311.817 588.867 311.884 589.219 312.015C589.781 312.225 590.292 312.575 590.7 313.012C591.509 313.867 591.933 315.093 591.825 316.277C591.697 317.677 591.119 318.884 591.796 320.243C592.352 321.337 593.367 322.169 594.417 322.728C596.813 324.021 599.668 323.308 601.884 321.873C603.917 320.548 604.127 317.899 604.641 315.728C604.945 314.48 605.403 313.187 606.425 312.365C606.533 312.277 606.672 312.212 606.765 312.113C605.857 313.045 605.06 312.529 605.836 312.52C606.072 312.509 606.311 312.509 606.547 312.529C607.22 312.596 607.851 312.836 608.416 313.209C610.605 314.677 611.256 317.48 612.532 319.651C613.853 321.895 615.923 323.155 618.473 322.389C619.725 322.028 621.211 321.58 622.171 320.615C622.907 319.892 623.321 318.884 623.619 317.899C623.971 316.715 624.108 315.488 624.493 314.305C624.695 313.692 624.951 313.1 625.308 312.575C625.489 312.301 625.704 312.091 625.916 311.852C625.96 311.797 626.125 311.72 626.153 311.653C626.035 311.972 623.993 312.113 625.235 312.225C627.973 312.475 631.609 314.26 631.297 317.569C631.285 317.656 632.855 317.176 632.971 317.141C633.22 317.043 634.501 316.715 634.532 316.387Z" fill="#F57A3B"/>
<path d="M56.5355 398.195C56.0156 395.247 57.888 393.449 59.2568 392.139C60.4921 390.955 60.8604 390.48 60.7464 389.841C60.6328 389.2 60.126 388.884 58.5599 388.193C56.8265 387.427 54.4531 386.38 53.9323 383.431C53.4115 380.48 55.2855 378.688 56.6536 377.377C57.8896 376.189 58.2568 375.719 58.1448 375.081C58.0323 374.447 57.5271 374.131 55.9593 373.439C54.2281 372.676 51.8516 371.632 51.3307 368.683C50.8125 365.732 52.6849 363.939 54.0521 362.629C55.2875 361.443 55.6563 360.972 55.5427 360.335C55.4307 359.696 54.9245 359.381 53.3584 358.691C51.6251 357.927 49.2527 356.883 48.7317 353.933C48.2109 350.985 50.0849 349.193 51.4521 347.879C52.6891 346.695 53.0563 346.227 52.9437 345.588L57.0797 344.861C57.5989 347.807 55.7251 349.604 54.3584 350.912C53.1224 352.096 52.7552 352.568 52.8672 353.204C52.9781 353.84 53.486 354.159 55.0511 354.848C56.7855 355.613 59.1599 356.66 59.6797 359.604C60.1989 362.553 58.3255 364.351 56.9609 365.66C55.7229 366.845 55.3541 367.316 55.4661 367.952C55.5781 368.588 56.0849 368.905 57.6495 369.596C59.3855 370.36 61.762 371.407 62.2803 374.353C62.8011 377.304 60.9287 379.096 59.5584 380.407C58.3229 381.592 57.9541 382.065 58.0677 382.703C58.1797 383.34 58.686 383.659 60.2536 384.351C61.9869 385.113 64.3636 386.163 64.8812 389.112C65.4027 392.063 63.5287 393.859 62.1615 395.172C60.9287 396.357 60.5573 396.827 60.6703 397.468L56.5355 398.195Z" fill="#60CAC9"/>
<path d="M377.524 66.6134C374.304 64.8054 369.732 63.7721 366.623 66.4854C362.828 69.8107 363.575 76.0734 364.348 80.4494C364.549 81.5854 364.812 82.7214 365.084 83.8721C365.225 84.4721 365.376 85.0801 365.499 85.6854C365.501 85.7161 365.667 86.3267 365.635 86.4C365.613 85.792 365.605 85.7427 365.591 86.2934C365.579 86.4934 365.555 86.688 365.507 86.8707C365.073 89.2307 363.411 90.5707 361.241 91.1387C359.361 91.6401 357.34 91.7174 355.627 92.6987C353.824 93.7467 352.601 95.6214 351.968 97.6027C351.151 100.179 351.313 102.993 351.616 105.62C351.935 108.444 352.713 111.125 353.569 113.827C353.657 114.099 353.735 113.504 353.709 113.593C353.808 113.225 353.724 112.633 353.701 112.305C353.66 111.44 353.615 110.515 353.357 109.676C353.015 108.593 352.657 107.507 352.368 106.393C352.256 105.907 352.124 105.424 352.039 104.937C351.991 104.743 351.937 104.516 351.917 104.3C351.971 104.791 351.951 104.112 351.953 103.995C352.092 102.025 352.861 99.9694 354.173 98.464C355.427 97.0267 357.059 96.3747 358.861 95.9854C360.516 95.6361 362.305 95.4747 363.757 94.5C365.395 93.3974 365.993 91.5054 366.109 89.6107C366.264 87.2507 365.991 84.7974 365.523 82.4961C365.169 80.6827 364.321 78.4067 364.321 76.756C364.34 74.6454 365.272 72.3094 366.836 70.8694C369.928 68.0187 374.589 69.0467 377.861 70.8747C377.912 70.8974 377.915 68.896 377.896 68.728C377.871 68.3374 377.924 66.8427 377.524 66.6134Z" fill="#AFD819"/>
<path d="M10.7203 501.871C19.0729 512.955 34.8333 515.171 45.9202 506.816C57.0068 498.461 59.2229 482.701 50.8688 471.616C42.513 460.528 26.7536 458.315 15.6666 466.671C4.57915 475.023 2.36456 490.784 10.7203 501.871Z" fill="#548ED2"/>
<path d="M433.24 117.827L478.381 114.797L447.1 74.7601L433.24 117.827Z" fill="#FBC907"/>
<path d="M573.168 372.769C571.4 372.9 569.572 373.275 567.935 373.972C567.34 374.228 566.752 374.539 566.171 374.835C565.891 374.985 565.607 375.132 565.32 375.264C565.183 375.325 565.001 375.368 564.865 375.448C566.313 374.645 566.875 375.272 565.805 375.089C562.657 374.547 561.729 370.508 561.805 367.807C561.847 366.195 562.073 364.592 562.045 362.987C562.035 361.475 561.855 359.639 560.805 358.48C559.793 357.375 558.307 357.533 556.941 357.776C555.381 358.055 553.747 358.427 552.439 359.376C551.175 360.296 550.372 361.621 549.464 362.872C548.933 363.604 548.357 364.337 547.624 364.909C547.303 365.157 546.963 365.295 546.628 365.523C547.803 364.753 548.408 365.315 547.597 365.197C547.312 365.167 547.047 365.135 546.781 365.073C543.248 364.273 541.269 360.687 539.952 357.611C538.588 354.472 537.792 351.072 537.629 347.628C537.491 344.439 538.009 340.829 540.664 338.683C541.001 338.415 541.365 338.164 541.764 337.952C541.908 337.879 542.139 337.827 542.264 337.725C541.805 337.835 541.339 337.952 540.876 338.057C540.988 338.065 541.087 338.08 541.203 338.075C542.219 338.281 543.084 338.588 543.924 339.227C545.352 340.308 546.425 341.897 547.108 343.54C547.731 345.052 548.02 346.821 547.509 348.421C547.255 349.208 546.801 349.936 546.196 350.513C545.936 350.763 545.649 350.983 545.333 351.167C545.203 351.244 544.991 351.312 544.873 351.407C545.469 351.265 546.061 351.124 546.661 350.983C546.505 350.971 546.34 350.955 546.196 350.912C545.495 350.781 544.573 351.1 543.893 351.265C543.6 351.335 543.032 351.376 542.811 351.583C542.78 351.605 542.431 351.72 542.652 351.761C544.429 352.096 546.667 351.547 548.312 350.829C549.625 350.252 550.693 349.116 551.159 347.763C552.316 344.427 550.143 340.273 547.499 338.353C546.104 337.34 544.549 337.061 542.841 337.308C540.948 337.564 538.864 337.993 537.287 339.171C534.281 341.427 533.736 345.373 533.972 348.856C534.223 352.772 535.283 356.617 537.041 360.084C538.78 363.468 541.507 366.479 545.639 366.025C547.544 365.805 549.784 365.417 551.328 364.156C552.88 362.887 553.696 361.008 555.045 359.576C555.588 358.999 556.224 358.579 556.893 358.183C557.705 357.715 557.284 358.993 555.367 358.443C555.512 358.485 555.7 358.461 555.844 358.507C556.355 358.613 556.76 358.881 557.111 359.251C558.288 360.548 558.389 362.665 558.355 364.332C558.272 367.98 557.212 372.944 560.787 375.339C562.535 376.489 564.841 375.903 566.736 375.395C567.581 375.169 568.392 374.863 569.179 374.477C569.561 374.297 569.941 374.089 570.311 373.901C570.521 373.789 570.712 373.695 570.912 373.604C571.767 373.195 572.163 373.481 570.005 373.636C570.863 373.569 571.719 373.393 572.54 373.171C572.719 373.123 573.868 372.721 573.168 372.769Z" fill="#FBC907"/>
<path d="M224.129 516.709C226.815 517.136 227.804 519.275 228.527 520.837C229.18 522.248 229.475 522.701 230.057 522.796C230.64 522.888 231.063 522.548 232.121 521.405C233.291 520.143 234.891 518.413 237.579 518.841C240.264 519.265 241.252 521.405 241.972 522.965C242.627 524.379 242.921 524.833 243.503 524.927C244.083 525.017 244.503 524.677 245.56 523.533C246.727 522.272 248.327 520.541 251.013 520.968C253.699 521.392 254.687 523.531 255.409 525.093C256.059 526.508 256.356 526.96 256.935 527.052C257.516 527.145 257.937 526.804 258.993 525.663C260.161 524.4 261.76 522.671 264.448 523.095C267.133 523.521 268.12 525.66 268.841 527.223C269.491 528.635 269.789 529.088 270.368 529.181L269.771 532.949C267.084 532.523 266.099 530.383 265.377 528.819C264.727 527.409 264.431 526.955 263.851 526.861C263.269 526.771 262.849 527.111 261.793 528.253C260.624 529.516 259.027 531.247 256.34 530.82C253.652 530.396 252.665 528.256 251.944 526.695C251.293 525.28 250.995 524.825 250.416 524.736C249.837 524.641 249.415 524.981 248.36 526.125C247.191 527.387 245.591 529.117 242.907 528.692C240.219 528.267 239.232 526.128 238.511 524.565C237.86 523.153 237.563 522.696 236.981 522.607C236.399 522.513 235.975 522.855 234.919 523.996C233.751 525.259 232.147 526.988 229.461 526.564C226.773 526.139 225.788 523.999 225.063 522.436C224.411 521.023 224.113 520.569 223.533 520.475L224.129 516.709Z" fill="#60CAC9"/>
<path d="M648.267 413.631C648.124 410.536 646.899 406.796 643.415 406.293C642.152 406.107 641.047 406.556 640.024 407.3C638.436 408.472 637.001 409.955 635.735 411.499C634.629 412.847 633.656 414.289 632.633 415.693C632.123 416.377 631.629 417.083 631.119 417.764C630.825 418.172 630.516 418.581 630.223 419.007C630.077 419.203 629.912 419.416 629.751 419.607C631.464 418.259 631.916 417.756 631.068 418.119C629.423 418.44 628.144 418.239 626.684 417.361C625.269 416.511 624.009 415.291 623.044 413.955C622.195 412.755 621.52 411.365 621.395 409.883C621.233 408.144 621.936 406.655 622.709 405.172C624.089 402.464 624.705 399.801 623.447 396.904C621.047 391.289 614.499 390.133 609.569 393.008C606.492 394.797 603.503 397.795 601.749 400.939C600.005 404.049 599.607 407.792 600.241 411.284C600.252 411.353 602.181 409.74 602.344 409.596C602.684 409.24 604.183 408.097 604.079 407.519C603.536 404.639 603.709 401.649 604.82 398.913C605.073 398.28 605.377 397.639 605.745 397.048C605.933 396.735 606.941 395.635 605.78 396.743C604.657 397.803 605.581 396.987 605.877 396.801C607.019 396.079 608.296 395.588 609.597 395.349C614.836 394.368 620.061 398.153 620.348 403.695C620.491 406.751 618.296 408.873 617.691 411.705C617.111 414.387 618.384 416.928 620.145 418.849C621.828 420.701 624.453 422.705 627.1 421.996C628.373 421.637 629.428 420.592 630.388 419.695C631.727 418.424 632.917 417.031 634.015 415.528C635.109 414.027 636.223 412.509 637.32 410.988C637.52 410.709 637.725 410.433 637.924 410.176C638.18 409.829 639.479 408.289 638.116 409.743C637.039 410.856 637.649 410.225 638.232 410.084C638.679 409.992 639.136 409.981 639.589 410.056C643.072 410.544 644.3 414.305 644.443 417.399C644.443 417.399 646.351 415.887 646.531 415.708C646.94 415.307 648.299 414.295 648.267 413.631Z" fill="#F03B87"/>
<path d="M641.413 171.179C648.955 160.407 646.337 145.56 635.564 138.017C624.791 130.473 609.947 133.091 602.405 143.864C594.861 154.637 597.477 169.483 608.251 177.027C619.023 184.569 633.868 181.952 641.413 171.179Z" fill="#548ED2"/>
<path d="M413.408 9.09336C415.916 9.81336 416.123 12.9987 414.985 14.8467C413.596 17.116 410.947 17.9787 408.523 18.752C405.937 19.5667 403.324 20.308 400.765 21.1973C399.828 21.5213 398.664 22.0333 398.517 23.1413C398.407 23.9507 398.945 24.6413 399.456 25.2307C399.973 25.828 400.589 26.392 400.947 27.1013C401.448 28.0693 401.273 29.1573 400.728 30.0506C399.585 31.88 397.401 32.212 395.389 31.9267C390.771 31.2614 385.169 29.988 380.963 32.5467C378.953 33.768 377.492 35.812 377.744 38.2453C377.991 40.66 379.663 42.6933 381.185 44.5027C381.477 44.8547 382.599 44.8373 383.012 44.8773C383.444 44.9227 383.891 44.9667 384.329 44.96C384.38 44.96 384.904 44.9133 384.873 44.8853C383.487 43.2227 382.001 41.4147 381.541 39.2654C381.083 37.0867 381.983 35.0333 383.657 33.648C387.757 30.2533 392.973 32.2253 397.744 32.5413C399.883 32.6827 402.432 32.7107 403.972 31.0253C404.565 30.3707 404.983 29.504 404.953 28.608C404.912 27.5907 404.257 26.8226 403.604 26.1013C403.099 25.5493 402.509 24.9867 402.288 24.2667C401.892 22.9853 402.976 22.1707 404.047 21.7627C406.657 20.772 409.416 20.0586 412.081 19.2173C414.624 18.4093 417.516 17.456 418.839 14.9587C420.013 12.7573 419.168 9.9733 416.617 9.23463C415.82 9.00663 414.932 8.94665 414.097 8.91465C413.907 8.90398 412.735 8.90002 413.408 9.09336Z" fill="#F25C19"/>
<path d="M284.453 617.421L279.223 624.21L276.317 621.976L278.919 618.598L273.273 615.548L277.192 610.465L271.548 607.412L275.463 602.327L269.815 599.279L273.732 594.193L268.087 591.139L272.005 586.051L266.361 582.992L271.581 576.195L274.489 578.428L271.884 581.816L277.531 584.879L273.619 589.965L279.264 593.019L275.348 598.101L280.993 601.149L277.079 606.236L282.723 609.291L278.807 614.371L284.453 617.421Z" fill="#F03B87"/>
<path d="M111.69 268.771L97.0754 308.579L143.284 297.059L111.69 268.771Z" fill="#FBC907"/>
<path d="M539.535 291.596L532.805 299.393L529.808 296.805L534.603 291.252L529.827 283.837L535.585 277.16L530.809 269.749L536.575 263.068L531.8 255.647L538.525 247.843L541.525 250.427L536.728 255.993L541.507 263.415L535.745 270.093L540.521 277.504L534.761 284.184L539.535 291.596Z" fill="#B61692"/>
<path d="M129.539 382.448C131.287 382.007 133.06 381.305 134.576 380.316C135.131 379.952 135.664 379.537 136.197 379.137C136.451 378.935 136.709 378.739 136.972 378.555C137.103 378.472 137.275 378.392 137.4 378.292C136.084 379.352 135.413 378.82 136.516 378.817C139.776 378.803 141.42 382.695 141.825 385.417C142.067 387.045 142.125 388.695 142.433 390.304C142.712 391.817 143.22 393.631 144.476 394.608C145.692 395.537 147.152 395.116 148.48 394.632C149.997 394.075 151.573 393.413 152.717 392.227C153.825 391.083 154.397 389.604 155.087 388.188C155.491 387.359 155.939 386.525 156.573 385.82C156.852 385.512 157.171 385.315 157.467 385.028C156.421 386.004 155.712 385.551 156.547 385.525C156.843 385.507 157.113 385.491 157.392 385.504C161.081 385.685 163.699 388.935 165.569 391.785C167.491 394.695 168.896 397.972 169.667 401.397C170.371 404.577 170.488 408.295 168.203 410.917C167.913 411.249 167.591 411.563 167.231 411.847C167.097 411.943 166.875 412.037 166.765 412.16C167.208 411.972 167.656 411.769 168.101 411.584C167.984 411.595 167.887 411.6 167.769 411.624C166.716 411.595 165.788 411.44 164.833 410.949C163.208 410.115 161.851 408.708 160.875 407.181C159.98 405.772 159.379 404.047 159.605 402.352C159.723 401.517 160.052 400.704 160.555 400.019C160.772 399.721 161.023 399.449 161.304 399.211C161.423 399.107 161.623 399.001 161.728 398.889C161.152 399.137 160.581 399.384 160.001 399.628C160.164 399.615 160.331 399.601 160.484 399.62C161.212 399.625 162.079 399.144 162.735 398.855C163.016 398.736 163.576 398.591 163.765 398.345C163.795 398.317 164.121 398.141 163.893 398.139C162.048 398.116 159.9 399.065 158.375 400.075C157.16 400.888 156.288 402.216 156.059 403.656C155.487 407.212 158.405 410.996 161.4 412.459C162.98 413.229 164.591 413.232 166.261 412.684C168.117 412.088 170.133 411.292 171.507 409.829C174.128 407.028 173.973 402.973 173.12 399.523C172.176 395.632 170.432 391.959 168.051 388.788C165.707 385.7 162.437 383.16 158.369 384.348C156.493 384.903 154.315 385.693 152.988 387.231C151.652 388.78 151.168 390.811 150.065 392.487C149.624 393.163 149.059 393.696 148.457 394.212C147.724 394.828 147.923 393.465 149.945 393.684C149.791 393.661 149.607 393.723 149.456 393.701C148.923 393.684 148.467 393.489 148.048 393.179C146.64 392.085 146.163 389.976 145.901 388.297C145.343 384.621 145.528 379.447 141.513 377.677C139.555 376.832 137.34 377.832 135.531 378.677C134.72 379.048 133.96 379.5 133.238 380.029C132.888 380.276 132.546 380.553 132.204 380.805C132.014 380.957 131.839 381.087 131.655 381.215C130.869 381.772 130.42 381.555 132.561 381.019C131.711 381.241 130.885 381.565 130.095 381.937C129.925 382.017 128.845 382.62 129.539 382.448Z" fill="#FBC907"/>
<path d="M386.28 144.231C384.031 141.788 380.651 143.057 378.392 144.615C376.976 145.587 376.291 146.859 375.677 148.441C375.197 149.677 374.824 150.888 375.169 152.231C375.783 154.689 377.843 156.385 378.853 158.651C379.141 159.28 379.253 159.895 379.336 160.581C379.347 160.692 379.309 160.821 379.331 160.939C378.953 158.821 380.369 159.223 379.7 159.685C379.336 159.945 379.047 160.232 378.637 160.423C377.271 161.077 375.736 161.035 374.273 160.719C371.493 160.124 368.456 158.452 365.629 159.619C364.516 160.079 363.699 160.951 363.135 161.983C362.349 163.384 361.645 165.028 361.424 166.632C361.021 169.529 363.364 171.544 364.741 173.831C365.111 174.441 365.424 175.08 365.605 175.76C365.693 176.085 365.751 176.408 365.769 176.74C365.775 176.873 365.761 177 365.767 177.129C365.815 177.853 367.101 174.908 366.227 175.932C365.244 177.079 363.645 177.689 362.161 177.873C360.543 178.084 358.988 177.713 357.927 176.388C356.855 175.041 356.025 173.809 354.181 173.497C350.341 172.86 348.468 177.127 347.84 180.187C347.695 180.913 348.284 179.761 348.332 179.677C348.683 178.932 349.041 178.111 349.208 177.293C349.191 177.417 348.116 179.277 348.863 178.38C348.961 178.271 349.057 178.164 349.16 178.067C349.445 177.784 349.764 177.537 350.12 177.352C350.695 177.051 351.34 176.897 351.988 176.883C353.251 176.855 354.541 177.395 355.412 178.337C356.441 179.448 356.989 180.781 358.565 181.216C359.841 181.564 361.236 181.352 362.44 180.913C365.205 179.923 366.692 177.127 367.139 174.321C367.544 171.736 365.573 169.657 364.209 167.684C363.425 166.541 362.724 165.241 362.804 163.831C362.809 163.684 362.86 163.523 362.847 163.379C362.936 164.776 361.948 165.044 362.501 164.416C362.66 164.219 362.836 164.027 363.023 163.853C363.559 163.361 364.207 163.029 364.912 162.847C367.664 162.153 370.38 163.651 373.035 164.193C375.785 164.753 378.284 164.005 379.509 161.411C380.12 160.149 380.835 158.636 380.752 157.173C380.704 156.063 380.196 155.005 379.623 154.057C378.927 152.924 378.044 151.929 377.377 150.765C377.032 150.163 376.743 149.532 376.581 148.865C376.489 148.524 376.479 148.203 376.436 147.861C376.425 147.785 376.484 147.597 376.451 147.528C376.62 147.855 375.261 149.589 376.245 148.675C378.419 146.663 382.469 145.039 384.893 147.673C384.957 147.745 385.697 146.144 385.759 146.025C385.857 145.756 386.517 144.493 386.28 144.231Z" fill="#F57A3B"/>
<path d="M24.2412 194.72C26.0521 193.567 28.1093 192.935 30.2588 192.935C31.2917 192.924 32.3161 193.068 33.3063 193.347C33.8255 193.517 34.3489 193.687 34.8297 193.936C35.1579 194.101 35.4636 194.299 35.7473 194.523C35.9339 194.656 36.1197 194.809 36.2943 194.989C35.8245 194.028 35.3776 193.079 34.9099 192.116C34.7588 192.461 34.8541 193.261 34.7432 193.649C34.6188 194.085 34.4271 194.495 34.224 194.908C33.8021 195.744 33.236 196.505 32.6839 197.243C31.3281 199.008 29.9645 200.757 28.9584 202.76C28.0251 204.623 27.3973 206.679 27.4151 208.82C27.4339 211.212 28.3401 213.48 29.3464 215.615C30.3421 217.693 31.4636 219.933 33.4677 221.189C35.0391 222.167 36.8984 222.483 38.7041 222.412C41.1849 222.323 43.5511 221.575 45.9307 221.003C47.888 220.544 51.9088 219.467 53.4557 221.327C52.7864 220.053 52.1172 218.783 51.4573 217.484C51.5088 217.625 51.5479 217.749 51.6145 217.877C51.4817 217.452 51.3229 217.015 51.1901 216.587C51.3464 217.955 50.3584 219.223 49.6068 220.267C48.8193 221.395 47.888 222.409 46.888 223.331C46.5495 223.644 47.7213 225.777 47.874 226.116C47.974 226.313 49.2787 228.793 49.3984 228.668C50.4807 227.661 51.4453 226.591 52.2855 225.399C52.9349 224.447 53.8161 223.293 53.8151 222.073C53.8151 220.607 52.7177 218.825 52.0661 217.587C51.4339 216.379 50.8656 215.469 49.4697 215.209C44.262 214.199 39.3672 217.751 34.1188 216.989C32.9573 216.816 31.8084 216.428 30.8203 215.752C30.2995 215.379 29.9521 214.812 29.4349 214.455C30.5765 215.276 30.4287 217.131 30.1536 215.7C30.0677 215.247 30.0219 214.795 30.0036 214.348C29.8593 211.591 30.8855 208.976 32.2787 206.675C33.5469 204.539 35.3489 202.753 36.5584 200.584C37.8177 198.351 37.5443 196.464 36.5235 194.148C35.8125 192.545 35.0079 190.64 33.6396 189.455C32.6771 188.621 31.3708 188.131 30.1407 187.867C27.2197 187.201 24.2145 187.804 21.7292 189.38C21.1787 189.721 24.0677 194.827 24.2412 194.72Z" fill="#B61692"/>
<path d="M549.275 64.2973L564.777 109.323L519.752 124.828L504.249 79.8027L549.275 64.2973Z" fill="#F57A3B"/>
<path d="M571.876 8.33207L577.437 5.34802L578.585 7.48669L574.624 9.61338L575.727 14.9027L570.965 17.4601L572.068 22.748L567.305 25.3054L568.405 30.6013L562.844 33.5894L561.693 31.4507L565.66 29.32L564.557 24.0254L569.319 21.4694L568.216 16.18L572.979 13.6227L571.876 8.33207Z" fill="#B61692"/>
<path d="M22.612 623.343C24.0417 623.531 25.3708 624.095 26.4765 625.022C27.012 625.464 27.475 625.975 27.8645 626.547C28.0598 626.859 28.2536 627.172 28.3932 627.507C28.4921 627.733 28.5625 627.967 28.6136 628.205C28.6527 628.355 28.6787 628.512 28.6917 628.679C28.8645 627.981 29.0469 627.303 29.2213 626.605C28.9921 626.717 28.6969 627.172 28.474 627.32C28.2188 627.491 27.9469 627.621 27.664 627.747C27.086 627.993 26.4661 628.139 25.8645 628.28C24.4062 628.604 22.9505 628.916 21.5702 629.51C20.2864 630.067 19.0765 630.853 18.1631 631.961C17.1417 633.196 16.6292 634.753 16.2265 636.284C15.8401 637.783 15.4489 639.42 15.9385 640.929C16.3265 642.109 17.1459 643.072 18.1027 643.815C19.4151 644.841 20.9541 645.476 22.4254 646.207C23.6276 646.815 26.1614 647.996 26.1536 649.619C26.362 648.676 26.564 647.736 26.7823 646.781C26.75 646.876 26.7177 646.96 26.6953 647.052C26.8098 646.776 26.9183 646.483 27.0323 646.207C26.5235 646.975 25.4697 647.203 24.6344 647.417C23.7412 647.655 22.8245 647.772 21.9151 647.815C21.6041 647.833 21.2855 649.436 21.2188 649.672C21.1875 649.819 20.7864 651.655 20.9047 651.644C21.8948 651.593 22.8489 651.459 23.7958 651.208C24.5417 650.998 25.4912 650.785 26.0172 650.159C26.6494 649.404 26.8541 648.017 27.0521 647.097C27.2473 646.204 27.3505 645.492 26.7448 644.756C24.5036 641.992 20.4557 641.705 18.086 639.051C17.5625 638.461 17.1407 637.764 16.9245 636.991C16.8161 636.575 16.8812 636.133 16.7708 635.727C17.0027 636.643 16.1276 637.529 16.6027 636.677C16.7536 636.407 16.9255 636.156 17.1084 635.917C18.2229 634.437 19.8803 633.536 21.5885 632.955C23.1615 632.405 24.8552 632.263 26.414 631.671C28.025 631.065 28.6978 629.975 29.1734 628.347C29.4984 627.217 29.9062 625.891 29.7145 624.691C29.5797 623.848 29.1197 623.031 28.6016 622.364C27.3854 620.764 25.5817 619.776 23.626 619.516C23.1937 619.455 22.4781 623.324 22.612 623.343Z" fill="#B61692"/>
<path d="M97.4751 624.453L115.22 646.832C115.787 647.548 116.023 648.472 115.867 649.371C115.711 650.271 115.18 651.061 114.405 651.545C113.63 652.029 112.686 652.16 111.81 651.905C110.934 651.649 110.207 651.033 109.813 650.21L97.4751 624.453Z" fill="#F25C19"/>
<path d="M161.297 663.541L155.437 621.847L197.135 615.986L202.993 657.683L161.297 663.541Z" fill="#F57A3B"/>
<path d="M228.572 76.9507C229.701 76.788 230.861 76.464 231.879 75.9427C232.252 75.7507 232.615 75.5267 232.975 75.3081C233.149 75.1987 233.324 75.0921 233.503 74.9961C233.588 74.9494 233.703 74.912 233.787 74.8587C232.893 75.4387 232.505 75.0587 233.197 75.1307C235.248 75.3347 236.023 77.892 236.099 79.628C236.141 80.668 236.072 81.7067 236.157 82.7387C236.236 83.7094 236.432 84.8814 237.159 85.5801C237.86 86.2427 238.807 86.0747 239.675 85.8587C240.661 85.608 241.696 85.2947 242.496 84.628C243.264 83.9787 243.721 83.0894 244.251 82.2454C244.559 81.752 244.895 81.2547 245.34 80.8574C245.535 80.6787 245.751 80.5787 245.955 80.4147C245.235 80.9614 244.817 80.628 245.347 80.668C245.528 80.6747 245.701 80.6827 245.876 80.7107C248.183 81.0667 249.613 83.2827 250.597 85.1987C251.615 87.1534 252.281 89.3067 252.539 91.5107C252.775 93.5534 252.604 95.8987 250.992 97.3974C250.789 97.5854 250.565 97.76 250.317 97.9147C250.228 97.9667 250.084 98.0134 250.007 98.0814C250.3 97.9934 250.592 97.8961 250.884 97.8081C250.812 97.8067 250.748 97.8054 250.672 97.8107C250.011 97.7241 249.439 97.5654 248.872 97.1947C247.907 96.5627 247.145 95.5894 246.633 94.564C246.164 93.6214 245.901 92.496 246.156 91.4454C246.283 90.928 246.541 90.44 246.905 90.04C247.061 89.8694 247.235 89.7134 247.432 89.5827C247.512 89.5267 247.643 89.472 247.716 89.4094C247.34 89.5267 246.961 89.6427 246.584 89.7587C246.688 89.76 246.793 89.7641 246.885 89.7854C247.343 89.8361 247.92 89.592 248.353 89.4534C248.536 89.3974 248.899 89.3454 249.033 89.204C249.052 89.188 249.271 89.0974 249.128 89.0814C247.969 88.944 246.557 89.4001 245.529 89.9334C244.715 90.3641 244.079 91.14 243.839 92.0307C243.244 94.228 244.829 96.7974 246.615 97.9147C247.557 98.504 248.569 98.6121 249.656 98.3774C250.857 98.1281 252.181 97.7574 253.139 96.9307C254.972 95.3454 255.143 92.7867 254.836 90.5587C254.497 88.052 253.644 85.6281 252.357 83.4774C251.088 81.3827 249.203 79.5721 246.565 80.0494C245.349 80.2747 243.931 80.6241 242.996 81.5054C242.053 82.3907 241.615 83.6361 240.812 84.6161C240.488 85.0107 240.1 85.3094 239.685 85.5934C239.187 85.9321 239.4 85.0894 240.653 85.3601C240.561 85.3374 240.44 85.36 240.347 85.3374C240.013 85.292 239.739 85.1387 239.497 84.9147C238.685 84.136 238.524 82.7814 238.471 81.7067C238.361 79.36 238.82 76.1214 236.412 74.7427C235.239 74.0827 233.781 74.5641 232.588 74.9747C232.053 75.1561 231.545 75.3907 231.057 75.6747C230.823 75.8054 230.588 75.9587 230.359 76.0947C230.228 76.1774 230.111 76.2467 229.985 76.3147C229.453 76.616 229.188 76.448 230.568 76.2507C230.017 76.3334 229.475 76.4841 228.956 76.6654C228.844 76.7041 228.123 77.0134 228.572 76.9507Z" fill="#FBC907"/>
<path d="M16.1703 531.688C7.0818 531.847 -0.156228 539.343 0.00262661 548.431C0.161481 557.52 7.65627 564.759 16.7432 564.598C25.835 564.443 33.073 556.947 32.914 547.859C32.7552 538.769 25.262 531.528 16.1703 531.688Z" fill="#548ED2"/>
<path d="M618.017 219.919L638.141 204.193L653.871 224.321L633.741 240.045L618.017 219.919Z" fill="#F57A3B"/>
<path d="M308.024 654.693C309.636 655.88 311.491 654.74 312.651 653.557C313.379 652.819 313.637 651.984 313.819 650.977C313.96 650.191 314.043 649.431 313.683 648.676C313.037 647.289 311.621 646.524 310.763 645.296C310.52 644.956 310.381 644.604 310.253 644.208C310.236 644.144 310.243 644.063 310.216 643.996C310.683 645.208 309.799 645.131 310.141 644.783C310.327 644.585 310.464 644.381 310.687 644.221C311.419 643.677 312.333 643.527 313.236 643.544C314.952 643.577 316.941 644.216 318.484 643.198C319.088 642.802 319.472 642.192 319.688 641.512C319.991 640.592 320.219 639.536 320.163 638.564C320.071 636.8 318.449 635.877 317.372 634.681C317.084 634.363 316.824 634.02 316.639 633.637C316.549 633.455 316.476 633.271 316.428 633.077C316.409 632.997 316.405 632.919 316.384 632.845C316.272 632.422 315.851 634.315 316.251 633.608C316.7 632.816 317.577 632.271 318.435 631.989C319.368 631.679 320.332 631.719 321.115 632.383C321.904 633.056 322.536 633.691 323.665 633.661C326.012 633.6 326.632 630.856 326.651 628.972C326.653 628.525 326.436 629.273 326.419 629.329C326.297 629.81 326.177 630.337 326.175 630.841C326.172 630.764 326.591 629.539 326.252 630.159C326.205 630.236 326.164 630.307 326.112 630.379C325.976 630.579 325.816 630.761 325.624 630.91C325.321 631.155 324.955 631.322 324.573 631.405C323.828 631.568 323.001 631.397 322.383 630.937C321.64 630.398 321.164 629.672 320.181 629.595C319.383 629.536 318.581 629.824 317.919 630.22C316.395 631.127 315.837 632.955 315.896 634.665C315.955 636.245 317.359 637.247 318.396 638.261C318.991 638.847 319.556 639.533 319.672 640.379C319.685 640.468 319.673 640.571 319.696 640.652C319.483 639.835 320.037 639.564 319.785 639.998C319.708 640.135 319.629 640.267 319.539 640.395C319.277 640.747 318.931 641.017 318.535 641.205C316.984 641.933 315.204 641.357 313.569 641.344C311.877 641.328 310.481 642.059 310.055 643.739C309.837 644.553 309.589 645.534 309.805 646.391C309.964 647.041 310.384 647.61 310.835 648.104C311.377 648.696 312.015 649.184 312.543 649.797C312.817 650.114 313.063 650.453 313.235 650.831C313.325 651.022 313.371 651.21 313.436 651.408C313.451 651.453 313.437 651.571 313.464 651.607C313.328 651.433 313.931 650.249 313.456 650.905C312.399 652.345 310.187 653.774 308.448 652.492C308.401 652.457 308.145 653.491 308.125 653.568C308.099 653.741 307.852 654.565 308.024 654.693Z" fill="#F57A3B"/>
<path d="M94.4964 512.816L100.656 513.659L100.333 516.028L95.9427 515.425L93.7588 520.284L88.4828 519.561L86.2995 524.419L81.0208 523.696L78.8333 528.556L72.6683 527.717L72.9921 525.347L77.3864 525.947L79.5755 521.087L84.8527 521.805L87.0364 516.952L92.3125 517.672L94.4964 512.816Z" fill="#B61692"/>
<path d="M269.204 3.25207C270.345 3.45341 270.585 4.85471 270.169 5.72271C269.659 6.79205 268.527 7.29741 267.489 7.75207C266.384 8.23474 265.263 8.68275 264.173 9.19341C263.771 9.38141 263.281 9.66538 263.267 10.1587C263.256 10.5214 263.527 10.8027 263.779 11.04C264.037 11.28 264.336 11.5001 264.528 11.7974C264.795 12.2041 264.765 12.6934 264.567 13.1134C264.145 13.9761 263.195 14.2254 262.292 14.192C260.219 14.112 257.68 13.8094 255.937 15.1387C255.107 15.7707 254.553 16.7454 254.779 17.8081C255.001 18.8654 255.836 19.688 256.592 20.4174C256.739 20.56 257.233 20.4988 257.417 20.4988C257.612 20.4988 257.811 20.4974 258.005 20.4721C258.028 20.4694 258.255 20.4254 258.243 20.4147C257.551 19.7427 256.809 19.0134 256.505 18.0814C256.201 17.14 256.505 16.1907 257.183 15.5001C258.836 13.8067 261.237 14.4361 263.363 14.3547C264.317 14.3161 265.444 14.2107 266.047 13.392C266.28 13.076 266.423 12.6734 266.369 12.2787C266.303 11.8307 265.976 11.5214 265.656 11.2321C265.407 11.0121 265.12 10.7907 264.987 10.4814C264.753 9.9347 265.196 9.52405 265.649 9.29205C266.759 8.73338 267.945 8.28942 269.085 7.79342C270.172 7.31742 271.409 6.75875 271.879 5.59342C272.295 4.56542 271.793 3.37205 270.629 3.16405C270.264 3.10005 269.868 3.11606 269.499 3.13873C269.415 3.14273 268.896 3.19607 269.204 3.25207Z" fill="#F25C19"/>
<path d="M0.158875 440.143L6.53909 436.597L7.69117 429.389L13.0365 434.359L20.2474 433.227L17.1719 439.845L20.4782 446.357L13.2302 445.476L8.06253 450.631L6.66043 443.465L0.158875 440.143Z" fill="#AFD819"/>
<path d="M130.777 539.561L114.815 524.839L110.047 533.097L130.777 539.561Z" fill="#FBC907"/>
<path d="M614.951 247.495L618.769 248.709L618.251 250.341L616.351 249.739L615.913 252.708L613.053 251.8L612.615 254.768L609.752 253.861L609.316 256.831L606.452 255.923L606.016 258.892L603.151 257.984L602.709 260.955L598.887 259.747L599.404 258.112L601.309 258.715L601.751 255.744L604.613 256.649L605.051 253.68L607.915 254.587L608.349 251.619L611.211 252.525L611.649 249.557L614.512 250.465L614.951 247.495Z" fill="#F03B87"/>
<path d="M125.298 341.736L148.864 334.977C149.664 334.749 150.499 335.211 150.725 336.012C150.956 336.811 150.493 337.643 149.695 337.871L126.128 344.629C125.327 344.861 124.496 344.399 124.266 343.599C124.036 342.799 124.498 341.968 125.298 341.736Z" fill="#5FC232"/>
<path d="M105.465 241.071C105.164 241.284 104.827 241.439 104.464 241.499C104.431 241.505 104.39 241.505 104.358 241.517C104.246 241.547 104.502 241.516 104.502 241.516C104.451 241.491 104.346 241.499 104.277 241.485C104.091 241.452 103.909 241.399 103.731 241.333C102.968 241.045 102.333 240.497 101.811 239.879C100.786 238.653 100.077 237.152 99.3516 235.732C98.6355 234.321 97.9203 232.897 96.986 231.621C96.5183 230.983 95.9948 230.367 95.3984 229.852C95.0912 229.584 94.7484 229.344 94.3464 229.244C93.9115 229.132 93.4287 229.135 92.986 229.179C91.4948 229.315 90.9645 230.835 89.9912 231.753C89.6989 232.028 89.4088 232.161 89.0479 232.303C88.8855 232.365 89.3473 232.271 89.3645 232.305C89.3568 232.296 89.2396 232.272 89.2197 232.268C89.1303 232.241 89.0407 232.201 88.9557 232.159C88.7604 232.063 88.5807 231.932 88.4203 231.787C87.8011 231.227 87.4297 230.46 87.0807 229.712C86.7307 228.956 86.4036 228.143 85.8792 227.493C85.6703 227.236 85.4027 226.989 85.0817 226.892C84.6839 226.769 84.1849 226.781 83.776 226.848C82.9584 226.973 82.7536 228.047 82.5755 228.723C82.4531 229.18 82.362 229.647 82.3031 230.117C82.2432 230.601 82.236 231.089 82.1807 231.577C82.1312 231.988 82.0339 232.396 81.8084 232.751C81.7136 232.896 81.6016 233.025 81.4677 233.135C81.3864 233.203 81.2907 233.261 81.1979 233.303C81.1599 233.32 81.124 233.332 81.0869 233.345C81.0573 233.355 81.0251 233.361 80.9932 233.369C81.1547 233.368 81.3177 233.367 81.4781 233.367C81.2823 233.268 81.0547 233.231 80.8527 233.127C80.6473 233.02 80.4573 232.897 80.2735 232.761C79.8959 232.488 79.5443 232.181 79.186 231.879C78.5208 231.329 77.8031 230.827 76.9323 230.699C76.1917 230.596 75.2527 230.587 74.586 231.008C74.3084 231.184 74.0953 231.417 73.9584 231.721C73.9453 231.749 74.4593 231.775 74.4973 231.779C74.5781 231.775 74.9948 231.815 75.0355 231.72C75.1839 231.387 75.436 231.125 75.7579 230.957C75.9151 230.877 76.0755 230.84 76.2448 230.785C76.4844 230.699 76.0765 230.791 76.0953 230.773C76.112 230.76 76.2473 230.805 76.2588 230.805C76.3917 230.84 76.5224 230.883 76.6459 230.936C77.4984 231.281 78.1579 231.945 78.862 232.511C79.1849 232.769 79.526 233.015 79.8984 233.2C80.2927 233.396 80.7005 233.46 81.1364 233.472C81.5469 233.473 82.0068 233.481 82.3697 233.26C82.6588 233.084 82.8751 232.812 83.0208 232.504C83.2145 232.087 83.264 231.616 83.2943 231.159C83.3297 230.689 83.3604 230.221 83.4339 229.752C83.5104 229.288 83.6145 228.82 83.7536 228.368C83.8708 227.983 83.9896 227.54 84.2328 227.212C84.2995 227.127 84.376 227.041 84.474 226.984C84.5088 226.967 84.5521 226.956 84.5833 226.932C84.5833 226.932 84.6027 226.924 84.6156 226.92C84.4375 226.924 84.2552 226.928 84.0765 226.935C84.1344 226.981 84.2448 227.008 84.3151 227.052C84.4245 227.112 84.5183 227.192 84.6084 227.285C84.8917 227.557 85.0964 227.907 85.2864 228.245C85.6989 228.98 86.0027 229.768 86.3932 230.507C86.7484 231.187 87.2464 231.871 87.9521 232.205C88.3255 232.381 88.7344 232.415 89.1396 232.417C89.5391 232.417 89.9636 232.405 90.3437 232.249C91.6527 231.705 92.0193 230.029 93.2724 229.403C93.3473 229.368 93.4219 229.335 93.5027 229.307C93.5443 229.296 93.5833 229.284 93.6188 229.269C93.8151 229.209 93.5797 229.443 93.3473 229.28C93.4131 229.327 93.5287 229.344 93.6084 229.375C93.7161 229.427 93.8229 229.485 93.9297 229.553C94.2855 229.784 94.5964 230.093 94.8917 230.4C95.4375 230.968 95.9151 231.599 96.3489 232.259C97.2213 233.588 97.9079 235.027 98.6328 236.439C99.362 237.848 100.115 239.377 101.287 240.464C101.821 240.957 102.444 241.335 103.156 241.504C103.919 241.681 104.807 241.697 105.575 241.516C105.909 241.44 106.219 241.3 106.505 241.097C106.565 241.059 106.159 241.031 106.128 241.031C105.99 241.027 105.852 241.027 105.714 241.036C105.643 241.041 105.518 241.032 105.465 241.071Z" fill="#AFD819"/>
<path d="M201.803 426.056L225.585 443.337L208.305 467.121L184.521 449.84L201.803 426.056Z" fill="#F57A3B"/>
<path d="M645.901 365.691C646.372 364.424 646.516 362.711 645.203 361.917C644.727 361.627 644.205 361.619 643.669 361.744C642.832 361.943 642.003 362.293 641.233 362.697C640.557 363.051 639.919 363.465 639.271 363.853C638.949 364.041 638.631 364.239 638.309 364.427C638.121 364.541 637.927 364.653 637.739 364.773C637.644 364.829 637.544 364.884 637.445 364.935C638.364 364.685 638.631 364.56 638.227 364.56C637.512 364.409 637.033 364.111 636.595 363.511C636.173 362.925 635.875 362.221 635.716 361.52C635.581 360.893 635.545 360.22 635.748 359.604C635.979 358.879 636.516 358.4 637.08 357.937C638.093 357.084 638.796 356.12 638.785 354.741C638.777 352.076 636.345 350.495 633.873 350.811C632.336 351.005 630.627 351.697 629.38 352.663C628.149 353.615 627.353 355.049 627.013 356.561C627.004 356.591 628.055 356.272 628.144 356.24C628.341 356.157 629.139 355.953 629.196 355.703C629.468 354.455 630.047 353.283 630.961 352.373C631.169 352.163 631.403 351.956 631.649 351.78C631.78 351.688 632.369 351.417 631.716 351.664C631.084 351.897 631.593 351.728 631.745 351.703C632.327 351.608 632.923 351.629 633.485 351.756C635.757 352.256 637.212 354.667 636.383 356.939C635.917 358.193 634.677 358.672 633.948 359.705C633.257 360.684 633.337 361.921 633.717 362.992C634.079 364.024 634.788 365.275 635.973 365.443C636.544 365.515 637.148 365.275 637.688 365.079C638.443 364.797 639.157 364.439 639.853 364.024C640.549 363.607 641.256 363.187 641.956 362.764C642.084 362.687 642.213 362.607 642.336 362.537C642.497 362.445 643.281 362.047 642.487 362.397C641.864 362.663 642.219 362.515 642.476 362.556C642.671 362.593 642.857 362.671 643.027 362.777C644.341 363.567 644.193 365.285 643.725 366.551C643.725 366.551 644.747 366.272 644.849 366.229C645.085 366.139 645.801 365.964 645.901 365.691Z" fill="#F03B87"/>
<path d="M237.868 650.627C238.244 652.173 239.956 652.425 241.265 652.298C242.085 652.221 242.669 651.847 243.297 651.325C243.781 650.917 244.221 650.496 244.388 649.853C244.701 648.681 244.235 647.491 244.336 646.305C244.361 645.972 244.457 645.692 244.583 645.383C244.603 645.332 244.649 645.288 244.668 645.234C244.333 646.209 243.833 645.712 244.221 645.676C244.432 645.652 244.623 645.596 244.839 645.612C245.563 645.655 246.197 646.028 246.737 646.502C247.764 647.397 248.648 648.805 250.109 648.973C250.681 649.04 251.225 648.864 251.703 648.561C252.357 648.157 253.035 647.629 253.5 647.009C254.344 645.888 253.828 644.496 253.784 643.22C253.771 642.877 253.788 642.537 253.871 642.209C253.909 642.053 253.957 641.903 254.028 641.759C254.057 641.703 254.093 641.655 254.119 641.596C254.268 641.283 253.043 642.219 253.648 641.992C254.328 641.74 255.139 641.857 255.805 642.122C256.533 642.41 257.099 642.928 257.235 643.731C257.373 644.545 257.435 645.252 258.136 645.813C259.596 646.975 261.373 645.62 262.349 644.481C262.58 644.214 262.064 644.557 262.025 644.584C261.704 644.813 261.364 645.075 261.103 645.377C261.141 645.329 262.023 644.798 261.499 645.004C261.433 645.028 261.368 645.048 261.301 645.067C261.116 645.117 260.925 645.146 260.733 645.141C260.423 645.135 260.116 645.048 259.841 644.905C259.305 644.624 258.889 644.095 258.745 643.498C258.569 642.792 258.649 642.107 258.089 641.559C257.636 641.116 257.001 640.881 256.396 640.783C255.004 640.557 253.732 641.384 252.893 642.457C252.12 643.447 252.464 644.775 252.577 645.92C252.64 646.583 252.633 647.292 252.271 647.863C252.235 647.922 252.176 647.979 252.149 648.043C252.436 647.434 252.912 647.552 252.533 647.691C252.419 647.736 252.304 647.775 252.184 647.805C251.844 647.884 251.496 647.873 251.157 647.785C249.843 647.437 249.052 646.179 248.064 645.332C247.04 644.459 245.819 644.191 244.7 644.995C244.152 645.38 243.501 645.851 243.195 646.483C242.957 646.96 242.924 647.522 242.945 648.053C242.973 648.689 243.113 649.31 243.121 649.955C243.127 650.289 243.103 650.621 243.013 650.937C242.972 651.101 242.904 651.239 242.843 651.392C242.828 651.425 242.759 651.489 242.757 651.528C242.763 651.352 243.737 650.94 243.111 651.093C241.731 651.433 239.655 651.173 239.251 649.505C239.241 649.46 238.559 649.96 238.505 649.993C238.4 650.084 237.831 650.463 237.868 650.627Z" fill="#F57A3B"/>
<path d="M651.944 115.293L639.845 102.767L652.372 90.6694L664.472 103.197L651.944 115.293Z" fill="#F57A3B"/>
<path d="M222.019 486.928C222.807 487.779 222.157 489.04 221.301 489.484C220.251 490.031 219.041 489.752 217.94 489.492C216.767 489.211 215.603 488.895 214.421 488.647C213.989 488.557 213.431 488.485 213.121 488.872C212.893 489.157 212.937 489.543 212.997 489.885C213.06 490.233 213.165 490.587 213.14 490.94C213.108 491.424 212.792 491.799 212.38 492.015C211.525 492.452 210.616 492.079 209.913 491.507C208.305 490.196 206.461 488.425 204.269 488.437C203.227 488.443 202.199 488.889 201.737 489.872C201.279 490.853 201.451 492.009 201.615 493.048C201.647 493.251 202.079 493.5 202.225 493.611C202.381 493.725 202.541 493.845 202.709 493.944C202.729 493.955 202.937 494.055 202.935 494.039C202.787 493.087 202.635 492.056 202.952 491.132C203.276 490.196 204.088 489.62 205.045 489.476C207.387 489.12 208.924 491.068 210.675 492.28C211.455 492.824 212.419 493.42 213.393 493.131C213.768 493.016 214.128 492.78 214.323 492.433C214.537 492.035 214.464 491.591 214.381 491.169C214.317 490.843 214.219 490.491 214.299 490.167C214.443 489.587 215.041 489.525 215.545 489.615C216.765 489.835 217.981 490.195 219.192 490.483C220.345 490.759 221.668 491.057 222.744 490.412C223.695 489.84 224.015 488.584 223.209 487.717C222.956 487.447 222.633 487.223 222.321 487.019C222.251 486.971 221.805 486.699 222.019 486.928Z" fill="#F25C19"/>
<path d="M416.093 145.465C416.855 145.435 417.645 145.3 418.356 145.027C418.619 144.925 418.873 144.801 419.129 144.681C419.251 144.623 419.372 144.564 419.497 144.511C419.561 144.487 419.639 144.469 419.696 144.439C419.063 144.76 418.831 144.483 419.288 144.579C420.633 144.857 420.971 146.607 420.899 147.764C420.853 148.457 420.733 149.141 420.72 149.832C420.704 150.48 420.752 151.272 421.185 151.787C421.605 152.276 422.247 152.231 422.836 152.145C423.508 152.049 424.217 151.915 424.792 151.528C425.349 151.151 425.713 150.593 426.123 150.072C426.364 149.763 426.62 149.457 426.944 149.224C427.084 149.12 427.235 149.068 427.38 148.975C426.864 149.287 426.612 149.036 426.957 149.1C427.08 149.117 427.195 149.135 427.308 149.165C428.815 149.563 429.609 151.132 430.131 152.472C430.667 153.84 430.96 155.312 430.975 156.793C430.988 158.165 430.712 159.708 429.54 160.589C429.389 160.699 429.229 160.803 429.057 160.887C428.993 160.916 428.892 160.936 428.839 160.976C429.037 160.936 429.24 160.893 429.439 160.855C429.392 160.851 429.349 160.844 429.299 160.844C428.865 160.739 428.499 160.595 428.148 160.305C427.549 159.82 427.115 159.123 426.847 158.407C426.599 157.748 426.503 156.985 426.745 156.305C426.867 155.971 427.075 155.664 427.34 155.424C427.457 155.323 427.583 155.232 427.72 155.159C427.779 155.128 427.871 155.1 427.921 155.064C427.664 155.113 427.407 155.167 427.148 155.217C427.215 155.225 427.287 155.233 427.348 155.255C427.645 155.321 428.047 155.199 428.343 155.139C428.467 155.112 428.711 155.104 428.812 155.019C428.825 155.009 428.976 154.965 428.881 154.944C428.124 154.772 427.153 154.975 426.436 155.257C425.864 155.487 425.389 155.959 425.169 156.532C424.621 157.947 425.493 159.764 426.599 160.628C427.184 161.084 427.848 161.228 428.584 161.145C429.4 161.065 430.304 160.915 430.996 160.431C432.323 159.507 432.615 157.82 432.565 156.321C432.517 154.636 432.119 152.969 431.415 151.452C430.72 149.973 429.596 148.64 427.812 148.773C426.992 148.84 426.025 148.972 425.344 149.491C424.656 150.012 424.279 150.807 423.676 151.403C423.433 151.64 423.155 151.811 422.86 151.972C422.507 152.161 422.705 151.616 423.521 151.884C423.46 151.861 423.377 151.869 423.319 151.848C423.099 151.795 422.928 151.673 422.785 151.509C422.3 150.935 422.285 150.024 422.325 149.308C422.416 147.745 422.948 145.627 421.445 144.547C420.715 144.028 419.713 144.244 418.895 144.433C418.528 144.516 418.175 144.636 417.829 144.789C417.664 144.861 417.497 144.947 417.335 145.021C417.245 145.065 417.159 145.103 417.075 145.14C416.699 145.303 416.535 145.172 417.465 145.139C417.092 145.156 416.724 145.217 416.367 145.301C416.291 145.319 415.791 145.473 416.093 145.465Z" fill="#FBC907"/>
<path d="M23.5781 605.788C22.6251 605.86 21.6849 605.681 20.8412 605.232C20.4349 605.02 20.0615 604.749 19.7292 604.432C19.564 604.256 19.3932 604.081 19.2552 603.881C19.1599 603.749 19.0817 603.608 19.0156 603.46C18.9697 603.368 18.9307 603.271 18.8995 603.161C18.8828 603.637 18.8593 604.105 18.8421 604.581C18.9765 604.477 19.1041 604.141 19.2292 604.012C19.3724 603.868 19.5287 603.747 19.6969 603.627C20.0355 603.388 20.4193 603.207 20.7907 603.031C21.6885 602.62 22.5912 602.219 23.4036 601.641C24.1599 601.105 24.836 600.427 25.276 599.584C25.7683 598.641 25.8855 597.56 25.936 596.51C25.9807 595.486 26.0079 594.373 25.4817 593.463C25.0677 592.751 24.4047 592.237 23.6807 591.889C22.6885 591.403 21.6005 591.203 20.5495 590.932C19.6849 590.703 17.8792 590.286 17.6615 589.234C17.6563 589.872 17.6527 590.512 17.6407 591.16C17.6495 591.093 17.6615 591.034 17.6631 590.972C17.626 591.168 17.5973 591.371 17.5599 591.568C17.7855 590.998 18.436 590.705 18.9489 590.455C19.4948 590.175 20.0745 589.972 20.6579 589.819C20.8552 589.765 20.8412 588.681 20.8527 588.52C20.8541 588.417 20.8593 587.172 20.7864 587.195C20.1511 587.365 19.5495 587.584 18.9713 587.879C18.5172 588.116 17.9297 588.384 17.6745 588.864C17.3672 589.441 17.4255 590.368 17.4245 590.991C17.4203 591.598 17.4521 592.075 17.9479 592.468C19.7812 593.951 22.4453 593.58 24.3505 594.973C24.7693 595.285 25.1407 595.679 25.3864 596.148C25.514 596.407 25.5323 596.701 25.6588 596.949C25.3812 596.388 25.8281 595.689 25.638 596.31C25.5755 596.505 25.5 596.695 25.414 596.871C24.8973 597.985 23.9453 598.798 22.9193 599.414C21.974 599.985 20.8932 600.309 19.9645 600.91C19.0027 601.525 18.7188 602.321 18.6355 603.444C18.5797 604.225 18.4964 605.139 18.7875 605.891C18.9896 606.419 19.4011 606.884 19.8281 607.247C20.8385 608.119 22.1448 608.509 23.4521 608.408C23.738 608.389 23.6683 605.78 23.5781 605.788Z" fill="#B61692"/>
<path d="M17.6989 398.403L17.8552 402.139L16.2568 402.205L16.1807 400.345L13.4385 400.912L13.3214 398.113L10.5792 398.677L10.4609 395.879L7.72031 396.441L7.60312 393.643L4.85938 394.207L4.74063 391.409L1.99584 391.967L1.83594 388.231L3.43386 388.164L3.51303 390.028L6.26042 389.464L6.3776 392.261L9.12084 391.7L9.23959 394.496L11.9792 393.933L12.0964 396.732L14.8412 396.168L14.9584 398.964L17.6989 398.403Z" fill="#F03B87"/>
<path d="M528.044 230.877L507.58 236.36L502.096 215.895L522.561 210.413L528.044 230.877Z" fill="#F57A3B"/>
<path d="M558.732 161.268C558.537 160.989 558.403 160.673 558.349 160.34C558.347 160.308 558.347 160.269 558.336 160.239C558.309 160.137 558.336 160.372 558.333 160.384C558.357 160.325 558.352 160.229 558.365 160.168C558.403 159.997 558.453 159.828 558.517 159.664C558.793 158.965 559.308 158.391 559.888 157.917C561.036 156.989 562.433 156.361 563.755 155.717C565.068 155.077 566.396 154.44 567.587 153.597C568.183 153.177 568.759 152.703 569.245 152.159C569.497 151.881 569.723 151.569 569.821 151.201C569.933 150.801 569.939 150.357 569.904 149.947C569.804 148.569 568.408 148.056 567.576 147.141C567.329 146.867 567.212 146.596 567.084 146.263C567.028 146.113 567.108 146.54 567.077 146.555C567.087 146.545 567.108 146.437 567.113 146.423C567.143 146.337 567.177 146.256 567.22 146.18C567.309 146.001 567.432 145.837 567.571 145.692C568.096 145.128 568.811 144.801 569.505 144.489C570.209 144.179 570.968 143.889 571.573 143.416C571.815 143.228 572.045 142.984 572.141 142.689C572.261 142.323 572.259 141.863 572.205 141.483C572.099 140.731 571.113 140.523 570.491 140.349C570.072 140.228 569.643 140.136 569.211 140.076C568.764 140.011 568.312 139.996 567.868 139.937C567.488 139.884 567.111 139.788 566.787 139.575C566.656 139.485 566.539 139.379 566.439 139.253C566.377 139.177 566.327 139.092 566.288 139.001C566.273 138.968 566.263 138.935 566.252 138.901C566.245 138.871 566.237 138.843 566.232 138.812C566.229 138.964 566.227 139.112 566.227 139.261C566.319 139.083 566.357 138.871 566.457 138.688C566.559 138.501 566.679 138.325 566.804 138.156C567.06 137.813 567.351 137.495 567.635 137.168C568.152 136.565 568.629 135.911 568.759 135.111C568.867 134.425 568.892 133.561 568.512 132.939C568.357 132.679 568.141 132.479 567.863 132.349C567.839 132.337 567.807 132.809 567.803 132.845C567.805 132.919 567.761 133.305 567.848 133.343C568.152 133.484 568.389 133.721 568.54 134.021C568.612 134.167 568.644 134.316 568.693 134.473C568.767 134.696 568.691 134.319 568.703 134.336C568.719 134.352 568.671 134.476 568.671 134.485C568.639 134.609 568.596 134.728 568.548 134.84C568.211 135.621 567.589 136.219 567.057 136.861C566.813 137.155 566.583 137.467 566.404 137.805C566.215 138.167 566.151 138.541 566.133 138.941C566.125 139.321 566.112 139.747 566.308 140.084C566.468 140.357 566.715 140.559 566.996 140.696C567.379 140.884 567.812 140.935 568.233 140.972C568.665 141.011 569.096 141.047 569.528 141.124C569.957 141.199 570.385 141.305 570.8 141.441C571.152 141.556 571.563 141.671 571.86 141.901C571.94 141.964 572.015 142.039 572.065 142.127C572.081 142.16 572.091 142.199 572.112 142.231C572.12 142.239 572.12 142.249 572.123 142.259C572.123 142.092 572.12 141.925 572.12 141.761C572.073 141.815 572.048 141.917 572.009 141.979C571.951 142.08 571.873 142.164 571.788 142.247C571.529 142.504 571.203 142.688 570.889 142.859C570.204 143.224 569.473 143.492 568.785 143.843C568.152 144.16 567.509 144.607 567.191 145.251C567.024 145.595 566.988 145.972 566.98 146.345C566.972 146.716 566.975 147.107 567.113 147.457C567.592 148.676 569.133 149.039 569.695 150.208C569.723 150.277 569.755 150.347 569.776 150.42C569.787 150.459 569.799 150.495 569.808 150.528C569.861 150.712 569.651 150.489 569.804 150.28C569.76 150.34 569.743 150.447 569.712 150.517C569.663 150.617 569.609 150.716 569.543 150.811C569.324 151.136 569.032 151.417 568.748 151.685C568.213 152.18 567.624 152.611 567.008 153.001C565.767 153.783 564.432 154.393 563.115 155.041C561.805 155.689 560.377 156.361 559.357 157.424C558.895 157.909 558.535 158.477 558.368 159.132C558.193 159.833 558.16 160.652 558.317 161.363C558.384 161.672 558.507 161.963 558.691 162.228C558.724 162.283 558.756 161.912 558.756 161.883C558.764 161.755 558.764 161.628 558.756 161.497C558.753 161.435 558.764 161.32 558.732 161.268Z" fill="#AFD819"/>
<path d="M438.759 663.46L415.92 666.667L412.711 643.828L435.552 640.619L438.759 663.46Z" fill="#F57A3B"/>
<path d="M33.138 327.404L5.61249 328.081C4.73228 328.103 3.8854 327.749 3.28332 327.108C2.6802 326.467 2.3802 325.599 2.45676 324.721C2.53384 323.844 2.9802 323.041 3.6854 322.515C4.39009 321.987 5.28592 321.785 6.14843 321.959L33.138 327.404Z" fill="#F25C19"/>
<path d="M61.1823 656.045C60.3473 655.238 60.9323 653.943 61.764 653.455C62.7839 652.853 64.0068 653.069 65.1188 653.268C66.3031 653.488 67.486 653.744 68.6787 653.929C69.112 653.998 69.6771 654.039 69.9645 653.635C70.1771 653.34 70.112 652.957 70.0339 652.62C69.9541 652.277 69.8297 651.925 69.8401 651.573C69.8421 651.088 70.1407 650.697 70.5407 650.46C71.3708 649.98 72.2979 650.305 73.0287 650.836C74.7041 652.064 76.6396 653.733 78.8255 653.608C79.8724 653.547 80.8697 653.047 81.2803 652.04C81.686 651.04 81.4557 649.893 81.236 648.864C81.1937 648.665 80.7516 648.439 80.5964 648.336C80.4349 648.227 80.2693 648.117 80.0964 648.028C80.0765 648.017 79.8593 647.925 79.8645 647.943C80.064 648.885 80.2708 649.907 80.0027 650.847C79.7281 651.798 78.9437 652.417 77.9964 652.612C75.6787 653.089 74.0407 651.224 72.2317 650.105C71.4203 649.6 70.4255 649.059 69.4688 649.401C69.0989 649.531 68.7536 649.786 68.5797 650.145C68.3844 650.552 68.4807 650.991 68.5869 651.41C68.6703 651.732 68.7823 652.077 68.7197 652.408C68.6068 652.991 68.012 653.084 67.5052 653.021C66.2724 652.865 65.0407 652.572 63.8203 652.343C62.6484 652.131 61.3161 651.903 60.2735 652.605C59.3541 653.222 59.1027 654.496 59.9521 655.316C60.2177 655.574 60.5531 655.785 60.874 655.971C60.9453 656.016 61.4079 656.26 61.1823 656.045Z" fill="#F25C19"/>
</g>
<defs>
<clipPath id="clip0_3_3">
<rect width="664.467" height="666.667" fill="white"/>
</clipPath>
</defs>
</svg>
